<svg width="754" height="653" viewBox="0 0 754 653" xmlns="http://www.w3.org/2000/svg"><g fill="none" fill-rule="evenodd"><g fill="#83CCFA" fill-rule="nonzero"><path d="M650.6 365.588c8.897-10.058 16.126-21.232 24.15-31.941 3.904-5.212 7.747-10.425 11.415-15.803 3.204-4.697 7.035-9.066 8.95-14.487.162-.457-.098-1.03-.516-1.256-5.474-2.965-11.559 3.151-17.059 3.185.362.47.722.94 1.085 1.408.512-2.024 2.213-3.489 3.637-4.932 1.545-1.566 2.887-3.307 4.286-4.999 3.47-4.197 6.979-8.364 10.401-12.6 6.888-8.527 13.949-16.915 20.928-25.368.91-1.1-.672-2.685-1.59-1.573-7.211 8.734-14.497 17.408-21.614 26.218-3.65 4.519-7.409 8.951-11.103 13.433-2.331 2.827-6.185 5.564-7.113 9.231-.176.696.34 1.412 1.084 1.408 2.59-.016 5.048-1.118 7.419-2.034 2.351-.909 6.03-2.795 8.504-1.455l-.516-1.256c-1.831 5.181-5.605 9.497-8.723 13.955-3.732 5.333-7.5 10.598-11.417 15.803-7.932 10.541-15.024 21.572-23.798 31.49-.95 1.075.633 2.656 1.59 1.573zM701.01 205.954c5.601-6.062 10.854-12.425 16.368-18.563 4.552-5.066 10.342-9.61 13.418-15.777.356-.714-.064-1.713-.971-1.674-5.44.235-9.948 3.532-15.104 4.86l1.383 1.369c1.256-3.13 4.787-5.849 7.062-8.277 2.846-3.035 5.687-6.073 8.546-9.095 5.885-6.22 11.572-12.62 17.648-18.663 1.023-1.018-.567-2.591-1.59-1.573-6.327 6.293-12.253 12.959-18.381 19.437-3.09 3.266-6.15 6.558-9.232 9.83-2.233 2.371-4.99 4.677-6.221 7.748-.33.823.627 1.564 1.383 1.37 4.923-1.269 9.334-4.558 14.506-4.781l-.97-1.675c-2.979 5.97-8.633 10.433-13.066 15.327-5.541 6.115-10.767 12.5-16.369 18.563-.975 1.057.61 2.635 1.59 1.574zM723.834 130.111c10.6-7.335 20.655-15.43 29.65-24.647 1.007-1.032-.582-2.607-1.59-1.573-8.864 9.081-18.749 17.07-29.196 24.3-1.178.815-.056 2.744 1.136 1.92zM706.218 113.98c9.5-4.835 16.935-12.655 24.964-19.455 1.104-.935-.495-2.5-1.59-1.573-7.888 6.681-15.175 14.356-24.51 19.108-1.29.656-.151 2.577 1.136 1.92zM335.162 95.07c4.282-2.445 8.56-4.895 12.79-7.425 3.677-2.198 7.676-5.878 12.129-6.144l-1.085-1.408c-.743 2.524-4.148 4.713-6.025 6.413a273.786 273.786 0 0 1-7.178 6.26c-4.209 3.554-8.508 7.028-11.995 11.31-.506.621-.393 1.633.496 1.86 4.765 1.209 10.264-2.158 14.36-4.192 1.297-.644.157-2.563-1.136-1.92-3.478 1.727-8.578 4.994-12.626 3.966l.496 1.86c3.926-4.822 8.88-8.653 13.6-12.672 2.42-2.06 4.79-4.179 7.138-6.321 1.896-1.732 4.289-3.427 5.038-5.972.196-.665-.355-1.451-1.084-1.408-4.1.244-7.503 2.802-10.82 4.954-4.926 3.195-10.135 6.008-15.234 8.918-1.254.716-.122 2.639 1.136 1.92zM355.215 105.823c13.11-8.434 27.852-13.947 41.04-22.249 13.607-8.564 28.39-15.414 43.103-21.878 1.324-.581.178-2.497-1.135-1.92-14.772 6.488-29.315 13.509-43.103 21.877-13.314 8.08-27.94 13.822-41.041 22.25-1.21.777-.084 2.705 1.136 1.92zM445.46 59.028c4.156-1.553 8.015-3.727 12.076-5.49 1.325-.575.18-2.491-1.136-1.92-3.88 1.684-7.566 3.781-11.537 5.264-1.343.502-.762 2.653.597 2.146zM471.029 46.307c7.232-3.626 14.032-8.024 20.802-12.422 1.206-.783.08-2.71-1.136-1.92-6.77 4.398-13.569 8.795-20.802 12.422-1.293.648-.154 2.567 1.136 1.92zM56.415 290.68c-9.553-1.79-18.746-10.269-15.145-20.51 3.112-8.848 14.857-10.653 22.523-7.123 1.12.516 2.306-.8 1.363-1.747-8.508-8.533-9.188-24.267-2.603-34.046 4.146-6.157 13.296-9.879 20.556-9.481 8.093.442 14.51 7.203 15.546 14.834.19 1.4 2.44 1.418 2.249 0-1.107-8.156-6.188-13.602-13.944-16.276-8.15-2.809-19.03 1.6-24.656 7.655-9.366 10.08-8.279 29.32 1.261 38.887l1.362-1.747c-8.944-4.12-21.042-1.95-25.444 7.522-5.314 11.437 5.531 22.152 16.332 24.176 1.419.267 2.023-1.877.6-2.144zM73.123 276.593c2.543 2.644 5.55 4.729 8.661 6.663 1.231.767 2.36-1.16 1.135-1.92-2.954-1.839-5.79-3.804-8.205-6.316-1.002-1.04-2.59.535-1.59 1.573zM1.014 280.476c10.323 7.233 20.794 14.257 31.484 20.95 5.03 3.15 10.412 5.706 15.31 9.065 5.016 3.439 9.897 7.046 15.423 9.661 1.301.616 2.443-1.302 1.135-1.92-5.222-2.472-9.88-5.828-14.617-9.085-4.905-3.373-10.199-6.036-15.284-9.12-11.052-6.706-21.74-14.06-32.316-21.472-1.187-.831-2.308 1.099-1.135 1.92zM34.452 323.417c5.587 1.386 11.31 2.203 16.986 3.14 5.669.938 11.128 2.756 16.858 3.388 1.44.159 1.425-2.068 0-2.225-5.869-.647-11.503-2.521-17.317-3.483-5.326-.88-10.687-1.665-15.929-2.966-1.407-.349-2.004 1.797-.598 2.146zM22.417 361.645c-2.822-3.857-1.906-8.416 2.22-10.9 1.237-.745.107-2.67-1.135-1.921-5.09 3.065-6.58 9.09-3.028 13.944.843 1.15 2.795.04 1.943-1.123z"/><path d="M38.647 345.039c-2.603-9.467-15.28-5.744-21.301-2.154-9.529 5.682-8.74 19.911-4.736 28.713 9.903 21.777 38.706 21.94 59.247 21.942 1.45 0 1.45-2.225 0-2.225-17.885-.003-41.116.388-53.581-14.66-6.183-7.464-9.319-21.682-2.507-29.666 3.93-4.606 18.392-9.786 20.71-1.359.38 1.383 2.55.795 2.168-.591z"/><path d="M67.876 392.011c-4.527 4-3.895 11.256-2.886 16.581 1.252 6.61 4.986 12.769 10.167 17.094 6.311 5.269 14.577 7.092 22.624 7.572 4.74.282 9.528.192 14.276.23 4.21.035 8.5-.086 12.572-1.239 1.392-.394.8-2.54-.598-2.145-7.062 2-14.968 1.133-22.231 1.055-8.279-.09-16.476-1.244-23.486-5.886-5.11-3.383-8.865-8.98-10.559-14.776-1.45-4.966-2.683-13.03 1.711-16.913 1.084-.957-.512-2.525-1.59-1.573zM62.72 413.704c-1.505-1.564-2.15-3.542-2.522-5.628-.251-1.411-2.418-.81-2.168.592.44 2.47 1.33 4.77 3.1 6.609 1.002 1.04 2.59-.535 1.59-1.573zM496.024 557.399c8.87 2.942 14.528 11.732 22.408 16.438 7.094 4.236 15.441 6.801 23.747 6.731 5.598-.047 11.776-1.074 16.408-4.375 4.972-3.544 5.419-9.282 3.286-14.6l-1.88 1.082c2.157 2.552 11.306 8.646 10.728 1.253l-1.92.787c8.982 7.596 22.688 8.757 32.847 2.77 1.244-.734.113-2.658-1.136-1.921-9.246 5.45-21.906 4.526-30.12-2.422-.676-.572-2.003-.265-1.92.786.204 2.612-2.214.85-3.5.029-1.226-.783-2.447-1.742-3.389-2.855-.703-.833-2.29.056-1.88 1.083 2.255 5.617 1.112 10.487-4.416 13.416-4.859 2.575-10.97 2.974-16.367 2.664-8.242-.473-16.538-4.085-23.15-8.835-6.487-4.662-11.275-11.565-19.149-14.176-1.378-.458-1.965 1.692-.597 2.145zM591.517 578.794c6.21 4.26 14.454 4.444 21.188 1.297 1.31-.612.168-2.53-1.136-1.92-6.036 2.82-13.39 2.493-18.916-1.298-1.196-.82-2.318 1.11-1.136 1.92zM607.34 587.064c2.405.752 4.682.016 6.864-1.04 1.302-.63.162-2.548-1.136-1.92-1.646.796-3.314 1.383-5.13.814-1.387-.434-1.975 1.715-.597 2.146zM543.173 590.255c6.265.45 12.2-1.796 16.724-6.073 1.05-.993-.543-2.564-1.59-1.573-4.122 3.897-9.444 5.83-15.134 5.421-1.448-.103-1.438 2.122 0 2.225zM647.408 550.318c2.35 10.567 5.433 22.259 14.855 28.847 4.455 3.116 10.485 4.59 15.607 2.232 5.237-2.41 8.742-7.252 10.125-12.724h-2.169c1.191 4.883 3.204 8.118 8.183 9.758 5.187 1.708 11.06.332 15.77-2.047 1.292-.653.154-2.572-1.136-1.92-4.104 2.072-8.607 2.987-13.166 2.052-4.712-.967-6.444-4.175-7.482-8.434-.261-1.07-1.901-1.058-2.169 0-1.338 5.295-4.86 10.012-10.223 11.79-5.263 1.747-10.951-1.206-14.75-4.676-6.993-6.391-9.313-16.642-11.276-25.469-.312-1.401-2.48-.807-2.169.591zM627.924 396.922c7.452-8.157 20.958-12.495 31.838-11.994 6.471.3 11.966 3.501 14.225 9.71 2.434 6.687-.313 14.505-5.113 19.436-.894.918.24 2.359 1.363 1.747 2.324-1.265 4.497-2.776 6.852-3.989 3.237-1.667 7.162-2.368 10.748-2.746 5.807-.613 12.126.035 17.48 2.448 12.254 5.522 6.65 21.88.862 30.205-.824 1.186 1.126 2.297 1.942 1.123 6.213-8.936 11.325-24.87.24-32.208-5.215-3.452-12.414-4.125-18.498-3.93-3.783.12-7.546.856-11.122 2.058-3.504 1.179-6.425 3.369-9.64 5.119.456.582.91 1.164 1.364 1.747 9.753-10.02 8.875-28.777-6.56-32.392-6.74-1.579-14.14-.1-20.572 2.042-6.164 2.052-12.58 5.215-16.999 10.05-.97 1.062.615 2.64 1.59 1.574zM272.447 86.805a37.847 37.847 0 0 0 1.932-2.424c.735-1.012-.631-1.92-1.538-1.522-.871.381-1.716.808-2.562 1.236a20.573 20.573 0 0 0-1.698-1.804c-.662-.614-1.572-.284-1.88.491-.425 1.07-.696 2.173-.897 3.29-1.668.629-3.306 1.266-4.864 2.164-.924.533-.58 2.156.568 2.073 1.243-.09 2.472-.016 3.694.123-.06.441-.127.881-.202 1.319-.27.423-.476.863-.548 1.322-.142.91.717 1.479 1.4 1.383.46.021.914-.212 1.05-.792.092-.396.172-.794.243-1.194.35-.527.834-1.06 1.34-1.566 1.814.28 3.632.524 5.485.425.947-.05 1.529-1.19.795-1.899-.844-.817-1.593-1.712-2.318-2.625zM355.864 42.844a12.09 12.09 0 0 0-1.9.203 35.78 35.78 0 0 0-.482-1.519c-.291-.837-1.21-1.034-1.88-.49-.972.791-1.766 1.722-2.486 2.71-1.705.04-3.37.045-4.981.712-.992.41-1.144 1.788 0 2.145.817.255 1.624.582 2.427.936a19.869 19.869 0 0 1-1.424 1.84 1.09 1.09 0 0 0-.157 1.273c.03.717.83 1.453 1.707 1.03 1.393-.672 2.864-1.384 4.28-2.196 1.078.41 2.174.733 3.304.865.782.092 1.205-.774 1.084-1.407a87.24 87.24 0 0 0-.458-2.24 12.883 12.883 0 0 0 1.937-2.187c.487-.705-.16-1.687-.97-1.675zM387.86 55.231c.416-.748.774-1.527 1.041-2.357.331-1.031-.822-1.611-1.651-1.256-.867.37-1.654.857-2.43 1.367-.691-.456-1.387-.905-2.057-1.367-.591-.41-1.489.004-1.652.664a41.753 41.753 0 0 0-.67 3.328c-1.064.574-2.122 1.154-3.123 1.847-.868.601-.624 2.097.567 2.073.695-.014 1.39-.021 2.082-.029a69.299 69.299 0 0 0-.208 3.552c-.04 1.26 1.684 1.41 2.14.462.02-.017.041-.028.06-.046 1.248-1.147 2.116-2.676 3.078-4.078a44.699 44.699 0 0 0 4.11-.363c.706-.1 1.043-1.087.672-1.635-.553-.817-1.226-1.519-1.959-2.162zM724.625 278.449c-.6-.017-1.2-.02-1.8-.017a18.318 18.318 0 0 0-.743-1.935c-.292-.633-1.318-.732-1.766-.225a16.636 16.636 0 0 0-1.62 2.209c-1.586.012-3.17-.012-4.753-.171-1.375-.14-1.365 1.751-.299 2.185 1.076.438 2.148.886 3.22 1.332-.313.62-.624 1.242-.948 1.857-.219.19-.32.404-.337.619-.073.132-.142.267-.217.398-.711 1.253 1.232 2.374 1.941 1.124.133-.234.26-.475.386-.713a38.92 38.92 0 0 1 2.619-1.861c.917.38 1.833.764 2.753 1.138 1.022.416 1.624-.869 1.27-1.634a16.774 16.774 0 0 1-.599-1.504c.483-.25.966-.5 1.461-.729 1.068-.493.472-2.044-.568-2.073zM406.56 208.808c10.914-7.262 22.317-13.795 32.89-21.554.863-.633.023-2.082-.851-1.44-10.573 7.758-21.976 14.291-32.89 21.553-.897.597-.054 2.043.852 1.44zM397.847 201.855c15.655-10.786 31.334-21.54 47.225-31.983.902-.591.058-2.038-.851-1.44-15.892 10.443-31.57 21.196-47.226 31.982-.885.61-.043 2.058.852 1.44z"/></g><path fill="#FFD819" d="M578.922 160.536l7.166-123.74 29.164-18.903 12.362 9.26 41.9-26.905-1.158 23.727 17.74 11.432 30.1-19.396L677.1 106.97l-86.177 56.582z"/><path fill="#FFF" d="M584.487 156.73l6.592-94.786 75.449-49.005-.345 3.66 4.267-2.722-.115 3.445 3.841-2.531-.352 3.669 4.5-2.948-.447 3.561 3.777-2.494-.202 3.55 4.105-2.505-.531 3.614 4.144-2.758-2.846 16.607-54.62 35.436-38.444 87.678-1.008.45.25-3.572-4.021 2.499.006-3.387z"/><path d="M664.392 72.172c-.438-.385-.884-.623-1.332-.745-1.077-.444-2.297-.025-3.376.609-1.464.86-2.617 2.608-3.17 4.503-.178.354-.328.69-.442.99-1.134 2.985.672 7.378 4.407 5.949 2.597-.994 4.035-4.03 4.67-6.603.53-1.736.557-3.547-.757-4.703z" fill="#FFEBAF"/><path d="M658.205 86.073c-1.12 0-2.191-.338-3.186-1.005-2.356-1.58-2.773-4.319-1.172-7.71.148-.312.293-.627.44-.941.78-1.682 1.586-3.422 2.714-4.99.429-.595 2.701-3.572 5.29-3.572.498 0 .973.111 1.415.33.569.283 1.12.737 1.64 1.35a6.702 6.702 0 0 1 1.396 5.843c-.09.382-.173.769-.257 1.156-.36 1.67-.731 3.396-1.604 4.98-1.159 2.103-3.603 4.559-6.676 4.559zm4.086-16.55c-1.27 0-2.92 1.49-3.916 2.873-1.035 1.438-1.808 3.104-2.555 4.716-.148.318-.295.636-.444.953-1.244 2.633-1.045 4.525.59 5.621.71.476 1.463.717 2.239.717 2.184 0 4.183-1.852 5.195-3.689.756-1.37 1.087-2.905 1.436-4.529.085-.396.171-.792.262-1.184.359-1.532-.042-3.215-1.042-4.394-.372-.438-.744-.752-1.107-.932a1.455 1.455 0 0 0-.658-.152zM668.68 64.589a.834.834 0 0 1-.819-1.037c.215-.85.815-1.595 1.345-2.253.142-.177.28-.347.4-.51.239-.323.471-.649.704-.975 1.02-1.43 2.073-2.908 3.585-4.056.369-.28.9-.211 1.183.153a.83.83 0 0 1-.155 1.17c-1.308.994-2.244 2.306-3.234 3.695-.238.334-.477.667-.72.998-.134.18-.286.37-.444.566-.422.524-.901 1.118-1.027 1.617a.844.844 0 0 1-.819.632zM670.795 70.47a.845.845 0 0 1-.654-.308.828.828 0 0 1 .12-1.173c1.593-1.286 3.542-2.476 5.793-3.537a.848.848 0 0 1 1.124.395.83.83 0 0 1-.4 1.112c-2.128 1.003-3.962 2.12-5.45 3.323a.848.848 0 0 1-.533.187zM673.323 81.687a.85.85 0 0 1-.362-.081c-.169-.08-.361-.174-.57-.277-.837-.413-2.584-1.265-3.204-1.143a.834.834 0 1 1-.347-1.632c1.107-.23 2.603.443 4.304 1.282.199.098.382.188.543.264a.83.83 0 0 1 .398 1.112.842.842 0 0 1-.762.475zM665.079 91.977a.843.843 0 0 1-.738-.43c-.518-.924-.73-2.21-.668-4.048a.846.846 0 0 1 .872-.805c.465.015.83.401.814.862-.05 1.48.103 2.552.456 3.183a.829.829 0 0 1-.328 1.134.85.85 0 0 1-.408.104zM655.333 97.817h-.012a.839.839 0 0 1-.83-.846c.028-1.845 1.045-4.083 1.908-5.439a.85.85 0 0 1 1.164-.261.83.83 0 0 1 .264 1.15c-.806 1.266-1.629 3.171-1.65 4.575a.838.838 0 0 1-.844.821zM644.403 85.21h-.316a.839.839 0 0 1-.84-.838.839.839 0 0 1 .843-.831h.003c1.192.008 2.77-.012 4.308-.18.47-.05.88.28.93.737a.837.837 0 0 1-.745.921c-1.488.163-2.986.19-4.183.19zM650.647 77.237a.845.845 0 0 1-.375-.087c-.381-.188-.812-.325-1.27-.47-.629-.198-1.279-.405-1.885-.77a.83.83 0 0 1-.282-1.147.85.85 0 0 1 1.16-.279c.433.263.962.43 1.521.607.497.157 1.011.32 1.508.565a.83.83 0 0 1 .38 1.118.843.843 0 0 1-.757.463zM658.707 67.967a.843.843 0 0 1-.8-.57c-.346-1.023-.298-2.218-.257-3.273.012-.307.024-.607.026-.889a.839.839 0 0 1 .843-.83h.003a.839.839 0 0 1 .84.837c0 .3-.013.62-.026.948-.038.956-.078 1.944.17 2.677a.832.832 0 0 1-.532 1.056.834.834 0 0 1-.267.044z" fill="#023CE8" fill-rule="nonzero"/><g><path fill="#FFD819" d="M515.018 232.277l8.66-126.99 29.728-19.373 12.405 9.509 42.7-27.57-1.436 24.341 17.826 11.741 30.675-19.877L615 177.363l-87.867 58.018z"/><path fill="#FFF" d="M521.48 227.922l7.75-97.281 76.904-50.224-.389 3.755 4.348-2.79-.155 3.534 3.916-2.593-.398 3.763 4.586-3.02-.491 3.653 3.85-2.557-.244 3.642 4.181-2.566-.578 3.707 4.226-2.826-3.064 17.036-55.674 36.32-39.903 89.963-1.025.46.292-3.666-4.098 2.562.044-3.477z"/><g fill="#023CE8" fill-rule="nonzero"><path d="M588.333 158.588a.838.838 0 0 1-.844-.855c.003-.104.004-.208.005-.312a.828.828 0 0 1 .304-.638l.27-.72c.609-1.622 1.238-3.3 1.951-4.919l.054-.122c.815-1.846 1.658-3.755 2.213-5.696.059-.208.114-.43.17-.658.212-.851.451-1.816 1.012-2.57a.849.849 0 0 1 1.18-.177.827.827 0 0 1 .179 1.166c-.362.486-.55 1.245-.732 1.98-.061.247-.121.487-.186.713-.586 2.051-1.452 4.013-2.29 5.91l-.053.122c-.695 1.576-1.315 3.232-1.916 4.832-.175.47-.351.939-.528 1.404a.846.846 0 0 1-.79.54z"/><path d="M588.525 158.816a.845.845 0 0 1-.596-.244.886.886 0 0 1-.23-.92c.187-.552.742-.626 1.11-.676.112-.015.238-.028.337-.057 1.3-.376 2.613-.994 3.881-1.592.386-.182.768-.362 1.149-.535 2.413-1.098 5.783-2.846 7.187-5.35.536-.957.784-1.882.631-2.358a.483.483 0 0 0-.284-.312c-1.65-.788-5.012.697-7.156 2.138a4.66 4.66 0 0 1-.704.494.847.847 0 0 1-1.12-.265.829.829 0 0 1 .192-1.124c.163-.123.36-.262.58-.412.14-.119.279-.25.422-.383.199-.186.397-.372.608-.543.586-.473 1.205-.895 1.804-1.303.634-.432 1.232-.84 1.792-1.304 1.205-.996 2.327-2.11 3.467-3.258.145-.146.346-.32.567-.508.308-.263.949-.81 1.03-1.048a.85.85 0 0 0 .036-.138c-.346-.161-1.784-.337-7.642 1.626-.357.12-.617.206-.743.241a.844.844 0 0 1-1.04-.576.832.832 0 0 1 .582-1.03c.112-.031.342-.109.66-.215 5.717-1.915 8.359-2.252 9.426-1.2.263.26.653.842.318 1.824-.227.67-.916 1.259-1.525 1.778-.18.155-.347.296-.466.415-1.027 1.035-2.043 2.044-3.13 2.981 1.001-.142 1.962-.081 2.775.307.571.273.971.725 1.16 1.31.409 1.278-.305 2.848-.766 3.671-1.643 2.933-5.329 4.862-7.956 6.058-.374.17-.75.347-1.129.525-1.328.626-2.702 1.273-4.133 1.687a3.747 3.747 0 0 1-.56.106.837.837 0 0 1-.534.19z"/><path d="M598.456 139.533a.853.853 0 0 1-.41-.105.83.83 0 0 1-.326-1.134c.264-.47.467-1.163.664-1.833.103-.352.204-.696.312-1.006.107-.309.222-.69.346-1.106.48-1.6 1.025-3.414 1.939-4.238a.85.85 0 0 1 1.19.054c.315.34.29.868-.054 1.179-.568.511-1.104 2.299-1.459 3.481-.132.44-.254.845-.367 1.173-.1.286-.193.603-.288.928-.223.76-.453 1.544-.81 2.18a.843.843 0 0 1-.737.427zM601.736 139.162a.859.859 0 0 1-.34-.07.831.831 0 0 1-.432-1.1c.51-1.146.998-2.353 1.47-3.522.287-.708.573-1.417.865-2.116a.843.843 0 0 1 1.101-.451.83.83 0 0 1 .457 1.09c-.29.692-.574 1.394-.857 2.097-.478 1.181-.971 2.403-1.492 3.575a.843.843 0 0 1-.772.497zM588.993 163.544a.845.845 0 0 1-.317-.062.831.831 0 0 1-.464-1.086c.208-.505.436-1.013.668-1.527.584-1.298 1.188-2.642 1.44-3.968a.842.842 0 0 1 .984-.667c.458.086.76.522.674.974-.288 1.52-.933 2.953-1.558 4.34-.223.497-.445.988-.645 1.476a.845.845 0 0 1-.782.52zM594.802 161.319a.848.848 0 0 1-.43-.116.83.83 0 0 1-.295-1.143c.872-1.459 1.852-3.876 1.945-5.736a.837.837 0 0 1 .884-.792.838.838 0 0 1 .8.875c-.107 2.154-1.171 4.817-2.178 6.501a.842.842 0 0 1-.726.41z"/></g><g fill="#83CCFA" fill-rule="nonzero"><path d="M556.389 135.943c12.052-5.789 22.54-14.08 33.517-21.571 11.145-7.605 23.122-14.006 33.837-22.222.859-.659-.344-1.83-1.192-1.18-10.593 8.122-22.447 14.486-33.495 21.96-11.015 7.453-21.454 15.778-33.518 21.572-.979.47-.124 1.91.85 1.441zM536.711 131.771c11.615-7.694 23.321-15.252 35.187-22.562 11.408-7.028 22.455-14.755 34.105-21.379.943-.535.094-1.978-.85-1.44-11.653 6.623-22.689 14.362-34.107 21.378-11.873 7.296-23.572 14.869-35.186 22.563-.898.595-.055 2.041.851 1.44z"/></g></g><g><path fill="#FFD819" d="M382.543 223.3l11.962-126.342 30.099-19.279 12.097 9.46 43.228-27.435-2.072 24.219 17.432 11.68 31.055-19.78-42.847 92.836-88.978 57.728z"/><path fill="#FFF" d="M388.122 219.68l10.274-96.783 77.867-49.978-.486 3.736 4.401-2.777-.247 3.516 3.966-2.581-.495 3.744 4.644-3.005-.585 3.635 3.9-2.544-.34 3.624 4.229-2.554-.673 3.689 4.28-2.813-3.5 16.95-56.37 36.143-42.083 89.506-1.033.458.388-3.648-4.146 2.55.135-3.46z"/><path d="M471.858 132.701c-.844-.91-1.8-1.106-2.745-.912a2.673 2.673 0 0 0-.588-.056c-.416.013-.814.165-1.195.382a5.288 5.288 0 0 0-2.003.82c-2.046 1.384-3.62 4.045-3.42 6.276-.452 1.156-.46 2.195.51 2.724.564 1.06 1.657 1.28 2.84 1.087 2.007.332 3.736-1.016 4.9-2.61 1.94-1.972 3.8-5.443 1.701-7.71z" fill="#ECF4CF"/><path d="M466.56 135.635c-.337-.606-1.035-.65-1.57-.353a.786.786 0 0 0-.343.14c-.86.654-1.493 1.587-1.511 2.646l-.002.018c-.002.206.011.416.059.63.04.184.115.332.21.45a.922.922 0 0 0 .262.415c.021.021.045.04.07.06.052.04.107.08.165.113.006.002.01.006.015.01.176.096.37.15.55.141.872-.046 1.6-.577 2.017-1.287.081-.106.154-.215.213-.324.461-.862.326-1.83-.135-2.66z" fill="#FE908B"/><path d="M464.951 146.892a4.958 4.958 0 0 1-2.217-.514c-1.512-.748-2.636-2.237-3.163-4.19-1.282-4.75 1.851-8.306 4.32-10.567a.85.85 0 0 1 1.192.045.83.83 0 0 1-.046 1.18c-3.46 3.17-4.644 5.919-3.836 8.911.395 1.464 1.23 2.604 2.288 3.128.917.454 1.962.454 3.106-.002 2.2-.875 3.59-2.603 4.367-3.898 1.192-1.988 2.425-4.044 2.5-6.36.044-1.392-.049-3.068-1.174-3.676-.822-.444-2.046-.343-3.634.299l-.416.167c-.622.248-1.265.505-1.846.797a.848.848 0 0 1-1.134-.366.83.83 0 0 1 .37-1.122c.646-.324 1.324-.595 1.978-.856l.41-.165c2.112-.852 3.773-.924 5.08-.218 2.18 1.178 2.09 3.991 2.051 5.193-.088 2.746-1.494 5.09-2.735 7.158-1.306 2.176-3.1 3.765-5.188 4.595-.773.307-1.537.461-2.273.461z" fill="#023CE8" fill-rule="nonzero"/><path d="M453.476 149.863a2.03 2.03 0 0 1-.868-.179c-.33-.154-.758-.483-.927-1.174-.422-1.716 1.383-3.4 2.462-4.407l.74-.696c.784-.737 1.567-1.475 2.335-2.228.102-.1.207-.215.316-.335.435-.475.976-1.065 1.702-1.276a.844.844 0 0 1 1.046.564.832.832 0 0 1-.57 1.036c-.27.08-.636.477-.929.797-.13.143-.256.28-.378.4-.777.76-1.569 1.506-2.36 2.251l-.745.701c-.594.554-2.171 2.026-1.98 2.8.012.055.026.075.026.075.119.055.575.06 2.1-.667l.26-.122c4.223-1.93 8.248-4.59 12.14-7.162l.655-.434c3.492-2.305 6.613-4.409 9.463-6.802.444-.374.858-.788 1.297-1.226.33-.33.66-.659 1.003-.972l.244-.218c.52-.464 1.112-.99 1.163-1.516a.745.745 0 0 0 .004-.063c-.818-.13-3.696 1.193-6.483 2.955a.841.841 0 0 1-.288.244.919.919 0 0 1-.721.132.873.873 0 0 1-.624-.67.829.829 0 0 1 .362-.88c2.518-1.631 6.999-4.214 8.708-3.19.31.186.818.646.721 1.633-.116 1.172-1.002 1.961-1.714 2.595l-.228.205a28.23 28.23 0 0 0-.948.919c-.444.444-.904.903-1.404 1.323-2.918 2.452-6.082 4.584-9.618 6.919l-.655.433c-3.946 2.607-8.026 5.304-12.37 7.288l-.234.11c-.878.42-1.846.837-2.703.837z" fill="#023CE8" fill-rule="nonzero"/><g fill="#83CCFA" fill-rule="nonzero"><path d="M457.05 93.401c3.9-3.07 8.44-5.144 12.618-7.796.913-.578.068-2.023-.85-1.44-4.307 2.732-8.942 4.892-12.962 8.056-.85.67.35 1.843 1.193 1.18zM476.266 87.641c-3.877 2.855-8.34 5.028-12.384 7.66-4.413 2.87-8.81 5.764-13.233 8.618-.49-.224-1.248.142-1.253.812-.282.18-.56.366-.843.546l-.3.19a57.224 57.224 0 0 0-.114-.191c-.56-.921-2.018-.083-1.456.842l.15.245c-.442.28-.882.56-1.325.836-.04-.05-.084-.096-.125-.145-.288-.355-.894-.296-1.192 0-.305.301-.296.701-.102 1.033-.759.472-1.518.942-2.28 1.412a23.994 23.994 0 0 0-1.884-2.221c1.588-.912 3.073-1.988 4.682-2.861.035.072.074.144.107.217.457.976 1.91.127 1.456-.842-.499-1.066-1.094-2.086-1.593-3.152-.456-.976-1.91-.128-1.456.842.228.488.478.967.728 1.444-1.792.962-3.427 2.18-5.212 3.155-2.52-2.084-5.572-3.07-8.857-.554-2.426 1.858-3.25 4.714-2.931 7.524-1.827.478-3.631 1.019-5.363 1.761a9.377 9.377 0 0 1-.22-1.792c-.023-1.075-1.71-1.077-1.686 0 .035 1.588.455 3.636 1.559 4.854.727.803 1.916-.381 1.192-1.18a2.522 2.522 0 0 1-.247-.33c1.636-.715 3.357-1.216 5.083-1.67.3 1.097.768 2.152 1.374 3.103-.478.31-.954.621-1.43.934-.523-.514-1.652-.067-1.41.815.008.032.022.061.031.093-.448.3-.888.61-1.333.912-.096-.11-.189-.224-.287-.334-.724-.806-1.912.379-1.193 1.18.031.034.06.07.09.104-.368.255-.737.509-1.103.767-.032-.041-.068-.079-.1-.12-.273-.365-.723-.549-1.153-.3-.364.211-.577.776-.302 1.142.065.087.138.168.206.253-.64.462-1.285.915-1.918 1.387-.857.638-.018 2.089.85 1.44.719-.535 1.449-1.053 2.176-1.574.461.466.946.91 1.44 1.351.807.718 2.003-.458 1.193-1.18-.426-.379-.855-.76-1.267-1.16.345-.242.697-.475 1.044-.715.359.461.707.931 1.054 1.403.632.862 2.096.03 1.456-.842a79.536 79.536 0 0 0-1.13-1.509c.295-.2.587-.407.884-.607.279.617.583 1.224.851 1.845.18.419.795.507 1.154.3.433-.251.483-.724.302-1.142-.282-.654-.604-1.29-.884-1.944 5.71-3.775 11.582-7.311 17.403-10.922.442.497.894.985 1.366 1.454.768.764 1.96-.416 1.193-1.18a32.517 32.517 0 0 1-1.118-1.174c.363-.227.728-.453 1.09-.682l.67 1.106c.56.922 2.018.083 1.457-.842l-.704-1.16.629-.402c.141.555.307 1.105.502 1.648.361 1.007 1.99.573 1.626-.443a18.647 18.647 0 0 1-.623-2.167c4.207-2.7 8.375-5.46 12.56-8.194 4.34-2.836 9.139-5.192 13.303-8.258.863-.632.024-2.082-.85-1.439zm-46.124 19.764c3.716-4.075 7.876-.144 10.241 2.976-3.489 2.15-6.981 4.293-10.43 6.502-1.804-2.889-2.255-6.799.189-9.478z"/><path d="M431.234 110.855c-.283-.36-.898-.292-1.192 0-.355.35-.283.822 0 1.18.364.461.659 1.01 1.03 1.483.284.36.899.291 1.193 0 .355-.351.283-.822 0-1.18-.365-.463-.658-1.011-1.03-1.483zM436.136 108.72c-.147-.43-.575-.709-1.037-.583-.425.116-.736.595-.59 1.026.233.683.52 1.283.967 1.852.282.36.899.291 1.193 0 .355-.352.281-.821 0-1.18-.266-.34-.396-.712-.533-1.115z"/></g></g><g><path fill="#FFD819" d="M205.943 303.582l16.59-130.077 31.13-19.816 11.903 9.746 44.697-28.199-2.949 24.924 17.224 12.038 32.111-20.333-46.616 95.534-92.081 59.373z"/><path fill="#FFF" d="M211.953 299.706l13.832-99.65 80.541-51.375-.623 3.846 4.55-2.855-.375 3.619 4.103-2.653-.632 3.853 4.803-3.089-.72 3.74 4.034-2.614-.47 3.729 4.369-2.626-.81 3.797 4.428-2.891-4.137 17.443-58.304 37.155-45.754 92.132-1.062.47.523-3.755-4.286 2.622.26-3.563z"/><path d="M302.553 170.846c6.36-2.88 11.981-6.994 17.85-10.707.913-.578.068-2.023-.851-1.441-5.869 3.713-11.49 7.827-17.85 10.707-.988.447-.13 1.885.85 1.44zM276.691 180.858c10.468-7.782 21.81-14.267 32.89-21.137.918-.57.072-2.014-.852-1.44-11.08 6.87-22.422 13.353-32.889 21.136-.858.638-.02 2.088.851 1.44zM271.35 177.52c10.731-6.58 21.26-13.482 32.187-19.745.94-.54.091-1.982-.852-1.441-10.927 6.263-21.455 13.166-32.186 19.746-.922.565-.076 2.01.851 1.44z" fill="#83CCFA" fill-rule="nonzero"/></g><g><path fill="#FFD819" d="M359.448 321.117L372.1 190.393l30.674-19.911 12.263 9.795 44.048-28.333-2.193 25.045 17.683 12.098 31.642-20.429-43.89 96.002-90.71 59.665z"/><path fill="#FFF" d="M365.713 316.984l10.82-100.148 79.353-51.62-.507 3.864 4.485-2.868-.264 3.636 4.041-2.665-.516 3.872 4.731-3.104-.607 3.76 3.973-2.628-.358 3.746 4.309-2.637-.697 3.814 4.36-2.904-3.616 17.528-57.446 37.333-43.135 92.59-1.052.473.41-3.776-4.229 2.636.152-3.581z"/><path d="M453.023 234.052c-.086-.475-.432-.907-.904-.96-.314-.679-.835-1.344-.977-2.008a.971.971 0 0 0-.738-.76c-.259-.444-.704-.719-1.456-.663-1.674.122-3.21 2.615-3.769 4.23-1.77.997-3.204 2.607-4.56 4.124-.753.442-1.5.893-2.232 1.373-1.067.697-.305 2.285.727 2.088.242.267.608.4 1.053.223.09-.036.178-.076.269-.113l.003-.001.113-.048c.033.054.069.105.109.154.063.225.2.434.382.596.191.596.856 1.07 1.493.77.305.057.64-.023.938-.323a43.1 43.1 0 0 0 .955-.997 77.287 77.287 0 0 0 2.929-2.27c.365-.27.724-.549 1.079-.833.027-.013.054-.021.08-.037 1.522-.897 3.151-1.872 4.135-3.362l.099-.08c.372-.303.417-.73.272-1.103z" fill="#FFEBAF"/><path d="M440.697 250.92a.844.844 0 0 1-.785-.528c-.51-1.282-.48-2.772-.413-4.069.027-.5.116-.963.203-1.411.11-.569.214-1.105.168-1.642a.835.835 0 0 1 .112-.49l-.22.001c-.453.015-.907.04-1.36.063-.655.034-1.309.068-1.963.079-.244.004-.5.016-.76.029-.761.035-1.55.075-2.296-.055-.225-.04-.415-.104-.582-.16-.163-.056-.292-.1-.392-.1a.845.845 0 0 1-.737-.444.828.828 0 0 1 .043-.852c.53-.789 1.556-1.343 2.46-1.833.304-.165.593-.32.827-.47.977-.624 1.965-1.233 2.952-1.842.632-.39 1.265-.78 1.895-1.174.456-.287.952-.524 1.43-.753.587-.281 1.14-.546 1.581-.875.395-.293.653-.977.904-1.637.146-.386.297-.785.487-1.14.588-1.1 1.192-2.198 1.795-3.293l.539-.979c1.008-1.833 2.224-3.546 3.285-5.008a.868.868 0 0 1 .773-.343c.301.031.562.22.685.494.413.93.506 2.168.58 3.164l.03.374c.04.503.056 1.005.07 1.49.022.767.044 1.492.16 2.202.02.123.038.248.056.376.065-.046.134-.09.207-.13.456-.259.923-.458 1.375-.65.224-.096.448-.191.668-.293.12-.056.391-.197.757-.385 5.19-2.69 6.155-2.888 6.78-2.171.704.806-.002 1.742-2.796 4.544-.152.152-.261.26-.304.309-.513.559-1.156 1.058-1.779 1.542-.92.715-1.872 1.455-2.285 2.31-.458.948.137 2.669.571 3.925.109.315.211.612.293.88.088.285.2.579.31.876.217.572.439 1.164.55 1.776.014.086.031.158.045.22.071.322.238 1.076-.74 1.466-.783.313-1.821-.193-3.204-.941-.24-.13-.44-.241-.566-.295l-.406-.174c-2.04-.884-2.99-1.213-4.161.197-.905 1.09-1.796 2.227-2.658 3.326-.792 1.012-1.612 2.059-2.45 3.078-.048.059-.102.13-.16.208-.32.423-.72.95-1.277 1.157a.896.896 0 0 1-.297.051zm.664-8.253a.83.83 0 0 1 .19.46c.066.767-.065 1.444-.193 2.098-.08.41-.154.8-.175 1.184-.035.659-.058 1.333-.004 1.97.806-.982 1.6-1.996 2.369-2.977.868-1.11 1.767-2.257 2.686-3.364 2.032-2.445 4.214-1.5 6.141-.666l.397.171c.178.076.412.203.71.363.283.154.885.48 1.35.675-.099-.371-.246-.765-.391-1.149-.124-.33-.246-.656-.343-.972-.078-.252-.174-.53-.276-.826-.558-1.613-1.251-3.622-.497-5.184.583-1.207 1.693-2.07 2.766-2.903.594-.461 1.154-.897 1.57-1.35.05-.057.177-.184.353-.36.552-.554.99-1.007 1.336-1.377-.845.387-1.958.94-3.336 1.653-.398.206-.693.358-.824.419-.236.11-.477.212-.717.314-.428.182-.831.354-1.203.565-.14.08-.281.222-.444.387-.209.212-.445.452-.766.642a.85.85 0 0 1-.761.053.837.837 0 0 1-.493-.576c-.097-.406-.154-.842-.209-1.265-.03-.226-.058-.451-.094-.666-.134-.82-.158-1.634-.181-2.421a27.162 27.162 0 0 0-.065-1.404l-.03-.385a29.972 29.972 0 0 0-.08-.932c-.718 1.032-1.447 2.147-2.08 3.299l-.54.98c-.6 1.089-1.2 2.18-1.785 3.274-.14.262-.266.594-.4.946-.318.844-.681 1.8-1.469 2.386-.572.426-1.225.739-1.858 1.042-.456.22-.888.427-1.265.662-.633.396-1.27.789-1.905 1.18-.979.604-1.958 1.208-2.928 1.828-.276.176-.595.35-.933.532-.199.107-.411.222-.621.342.396.012.819-.01 1.233-.03.28-.013.553-.027.813-.031.635-.01 1.27-.043 1.903-.077.464-.024.928-.048 1.392-.063.115-.005.246-.003.383-.003.232.004.717.005.855-.063a.84.84 0 0 1 1.168.207.835.835 0 0 1-.212 1.167 1.764 1.764 0 0 1-.537.245z" fill="#023CE8" fill-rule="nonzero"/><g fill-rule="nonzero"><path fill="#48495A" d="M381.885 221.159l85.97-53.208-.796 4.26-76.647 47.65z"/><path fill="#E1E1E1" d="M390.412 219.861l-6.184 27.625-4.966 3.43 2.623-29.757z"/><path fill="#0009D7" d="M380.378 238.252l1.507-17.093 26.028-16.062v3.885l-17.501 10.88-3.169 14.154z"/></g></g><g><path fill="#FFD819" d="M576.616 288.744l7.216-129.838 29.847-19.784 12.672 9.726 42.872-28.153-1.152 24.877 18.187 12.013 30.796-20.3-39.905 95.363-88.231 59.28z"/><path fill="#FFF" d="M582.497 284.741l6.657-99.468 77.213-51.292-.348 3.838 4.366-2.85-.113 3.612 3.93-2.648-.355 3.846 4.603-3.085-.452 3.734 3.865-2.61-.201 3.722 4.199-2.621-.539 3.789 4.24-2.886-2.888 17.411-55.898 37.095-39.287 91.97-1.032.47.251-3.75-4.117 2.618.002-3.557z"/><path d="M659.866 203.616c-.99-.856-2.238-.267-2.902.668-.652.92-.487 2.361.315 3.13.483.464 1.082.37 1.484.04.731-.129 1.369-.776 1.607-1.44.278-.773.146-1.835-.504-2.398z" fill="#FFEBAF"/><path d="M665.951 204.608a3.307 3.307 0 0 0-1.815-.268c-.942.033-1.894.502-2.445 1.232-.605.8-.336 1.784.296 2.468.303.328.664.403.989.32.755.46 1.845.644 2.588.349.314-.125.562-.3.762-.504.32-.176.607-.42.826-.755.725-1.111-.146-2.38-1.2-2.842z" fill="#FE908B"/><path d="M660.164 209.95c-.801-.525-1.65-.674-2.437-.547-.387-.25-.895-.267-1.292.193a15.59 15.59 0 0 0-.675.837 3.792 3.792 0 0 0-.903 1.425 7.155 7.155 0 0 0-.694 1.978c-.266 1.425-.132 3.557.974 4.651 2.133 2.113 4.872.099 5.844-2.083.857-1.925 1.257-5.096-.817-6.454z" fill="#ECF4CF"/><path d="M668.331 190.232c-1.164-.583-2.372-.296-3.46.344-1.85.316-3.3 2.26-3.971 3.802-.712 1.637-1.403 4.377-.965 6.157.072.29.177.566.306.824.103.305.223.604.375.893.223.424.587.578.95.553.758.425 1.686.475 2.627-.085.013-.008.023-.017.035-.026 2.099-.714 4.06-2.89 5.131-4.55 1.406-2.176 1.683-6.557-1.028-7.912z" fill="#FFEBAF"/><path d="M657.138 198.555c-.773-2.288-3.248-3.145-5.336-2.034a4.356 4.356 0 0 0-1.83 1.872c-.902 1.063-.706 2.765.343 3.829.105.106.227.198.348.29.553.684 1.385 1.17 2.35 1.195.194.005.36-.032.502-.097l.067-.002c.395.12.811.158 1.229.09 2.25-.363 2.944-3.312 2.327-5.143zM654.801 207.027c-.464-1.368-1.653-1.716-2.971-1.54-2.08.28-7.483 4.412-5.382 6.338.082.313.33.577.786.673 2.774.576 5.82-.335 6.915-2.505a2.935 2.935 0 0 0 .652-2.966z" fill="#FE908B"/><path d="M657.997 208.82c-.097 0-.193-.005-.29-.014-1.378-.134-2.315-1.105-2.445-2.536-.14-1.546.747-3.506 2.425-3.987a.836.836 0 0 1 .522-.543c.659-.235 1.368-.124 1.998.308.85.584 1.501 1.748 1.514 2.705.014 1.111-.533 2.306-1.427 3.12-.678.616-1.484.946-2.297.946zm.743-5.496a.84.84 0 0 1-.576.56c-.795.223-1.3 1.365-1.221 2.237.085.942.72 1.003.929 1.024.582.062 1.05-.29 1.281-.5.536-.488.89-1.239.882-1.87-.005-.38-.351-1.054-.79-1.355-.262-.18-.409-.129-.464-.11l-.04.014z" fill="#023CE8" fill-rule="nonzero"/><path d="M656.954 221.873c-2.425 0-4.79-1.483-5.537-3.698-.416-1.232-.413-2.72.01-4.189.462-1.61.963-2.48 1.623-2.816a.851.851 0 0 1 1.136.36c.213.41.05.913-.364 1.124.002.002-.333.257-.772 1.788-.33 1.15-.341 2.288-.033 3.206.688 2.04 3.255 2.943 5.094 2.39 2.255-.681 3.78-2.236 4.802-4.893.66-1.719-.242-3.525-1.315-5.22a.827.827 0 0 1 .119-1.033.849.849 0 0 1 1.043-.117c1.262.78 2.178 1.273 3.403.997 1.2-.27 2.193-1.143 2.59-2.275.206-.588.415-1.742-.503-2.868-.727-.892-1.622-1.296-2.928-1.268-.454-.001-.848-.364-.853-.824a.839.839 0 0 1 .833-.845c1.829-.039 3.207.598 4.26 1.89 1.044 1.28 1.33 2.907.784 4.461-.586 1.672-2.046 2.958-3.809 3.356a4.643 4.643 0 0 1-2.272-.047c.568 1.382.807 2.87.224 4.386-1.206 3.135-3.131 5.063-5.887 5.895-.54.162-1.096.24-1.648.24z" fill="#023CE8" fill-rule="nonzero"/><path d="M648.63 214.769c-.069 0-.137-.002-.206-.004-3.333-.114-5.366-1.423-5.723-3.683-.428-2.709 2.013-4.331 3.325-5.203l.206-.138c.81-.541 1.64-1.094 2.603-1.454-1.025-1.078-1.864-2.435-1.864-4.387 0-2.373 1.292-4.185 3.952-5.542 2.51-1.28 4.762-1.263 6.18.047.356.33.633.659.859.989.96-3.141 3.307-6.023 6.23-7.41 2.238-1.062 4.258-.985 6.177.236 2.184 1.39 2.881 4.119 2.603 6.207-.37 2.777-2.872 4.657-5.189 5.287a.846.846 0 0 1-1.036-.583.833.833 0 0 1 .59-1.026c1.72-.468 3.694-1.888 3.963-3.897.246-1.852-.512-3.737-1.844-4.584-1.423-.907-2.823-.949-4.535-.135-3.24 1.536-5.653 5.212-5.739 8.741a.837.837 0 0 1-.69.8.848.848 0 0 1-.933-.505c-.089-.214-.17-.422-.248-.625-.342-.886-.613-1.586-1.36-2.276-1.23-1.136-3.385-.226-4.254.217-2.074 1.057-3.04 2.347-3.04 4.06.001 1.774.898 2.886 2.447 4.207a.828.828 0 0 1 .252.886.843.843 0 0 1-.727.576c-1.3.117-2.297.783-3.453 1.554l-.21.14c-1.766 1.174-2.817 2.179-2.598 3.56.28 1.771 2.392 2.213 4.114 2.273 1.42.036 3.039-.58 4.334-1.68a.85.85 0 0 1 1.189.089.828.828 0 0 1-.09 1.176c-1.548 1.316-3.508 2.087-5.285 2.087z" fill="#023CE8" fill-rule="nonzero"/><g fill-rule="nonzero"><path fill="#48495A" d="M592.834 189.594l85.616-52.899-.442 3.951-76.647 47.65z"/><path fill="#E1E1E1" d="M601.361 188.296l-6.184 27.625-4.966 3.43 2.623-29.757z"/><path fill="#009E44" d="M591.327 206.687l1.507-17.093 26.029-16.063v3.885l-17.502 10.88-3.168 14.155z"/></g><path d="M624.556 183.917c9.335-6.585 18.611-13.25 28.001-19.759 4.497-3.117 8.994-6.236 13.55-9.269a457.51 457.51 0 0 1 7.291-4.738c1.7-1.085 3.636-1.852 5.02-3.353.732-.793-.457-1.976-1.192-1.18-1.465 1.589-3.775 2.516-5.592 3.675a458.077 458.077 0 0 0-7.284 4.76c-4.558 3.034-9.05 6.173-13.548 9.292-9.089 6.299-18.061 12.759-27.096 19.132-.878.618-.038 2.066.85 1.44z" fill="#83CCFA" fill-rule="nonzero"/></g><g><path fill="#FFD819" d="M546.607 393.777l8.14-135.14 30.545-20.546 12.86 10.132 43.868-29.236-1.316 25.875 18.474 12.517 31.508-21.083-41.216 99.19-90.334 61.62z"/><path fill="#FFF" d="M552.297 389.895l7.386-103.537 79.017-53.275-.376 3.992 4.467-2.96-.136 3.758 4.022-2.75-.384 4 4.71-3.204-.481 3.884 3.954-2.712-.226 3.872 4.295-2.722-.57 3.94 4.339-2.997-3.042 18.11-57.204 38.534-40.608 95.698-1.056.488.28-3.904-4.216 2.722.023-3.704z"/><path d="M632.788 306.67c-1.368-.38-1.748.105-1.184-1.334.293-.747.287-1.331-.122-2.026-.829-1.413-2.758-.294-3.609.419-.828.694-1.568 1.472-2.394 2.169-.962.811-2.068 1.899-3.486 1.706-.342-.047-.73-.06-1.066.04-4.065 1.208-4.44 6.758-4.105 10.25.017.18.067.336.14.471.23 1.245.555 2.435 1.024 3.627.083.21.204.369.345.49.122.395.253.787.405 1.179.037.096.083.18.134.258.218.6.484 1.187.822 1.768.508.873 1.614.579 1.979-.104.054-.052.106-.11.151-.174 2.01-2.893 4.4-5.727 6.813-8.298 2.064-2.199 4.797-4.353 5.976-7.207.716-1.735-.115-2.759-1.823-3.234z" fill="#FE908B"/><path d="M619.445 330.224a.852.852 0 0 1-.402-.101c-.955-.514-1.584-2.011-2.434-4.238-.297-.777-.577-1.51-.811-1.937-.669-1.22-1.074-2.63-1.466-3.994a74.144 74.144 0 0 0-.29-.987c-.409-1.35-.598-2.988-.593-5.153.009-3.597 1.284-6.524 3.9-8.948.626-.58 2.831-2.444 4.91-2.093.666.114 1.597.513 2.247 1.76.213.41.05.914-.364 1.125a.85.85 0 0 1-1.136-.36c-.36-.691-.763-.833-1.036-.88-1.035-.183-2.518.786-3.468 1.667-2.29 2.121-3.36 4.578-3.366 7.733-.005 1.969.166 3.496.522 4.669.1.328.197.667.296 1.01.366 1.277.746 2.597 1.326 3.654.29.527.59 1.313.906 2.144.415 1.085 1.186 3.106 1.662 3.36a.83.83 0 0 1 .339 1.132.844.844 0 0 1-.742.437zM620.195 332.264a.846.846 0 0 1-.521-.179.828.828 0 0 1-.141-1.171c.27-.34.57-.652.861-.954.367-.382.715-.742.974-1.127a.85.85 0 0 1 1.17-.23.83.83 0 0 1 .232 1.158c-.34.503-.755.934-1.155 1.35-.276.287-.536.557-.758.835a.843.843 0 0 1-.662.318zM624.525 327.436a.838.838 0 0 1-.832-.694 2.842 2.842 0 0 1-.027-.773c.045-.443.455-.788.878-.75a62.654 62.654 0 0 0 1.53-2.15c.9-1.3 1.83-2.646 2.928-3.874 3.09-3.452 5.69-7.124 8.43-11.905 1.117-1.953 2.164-5.873 1.22-8.155-.356-.86-.958-1.399-1.841-1.648-1.362-.383-3.582.338-4.861 1.228-4.402 3.062-5.146 4.77-5.198 5.517a.836.836 0 0 1-.899.775.837.837 0 0 1-.784-.89c.13-1.878 2.063-4.091 5.91-6.768 1.334-.927 4.112-2.083 6.295-1.467 1.373.388 2.39 1.294 2.938 2.62 1.213 2.93-.037 7.384-1.314 9.61-2.799 4.887-5.462 8.647-8.633 12.189-1.029 1.15-1.928 2.451-2.798 3.71-.723 1.047-1.471 2.129-2.29 3.118a.845.845 0 0 1-.652.307z" fill="#023CE8" fill-rule="nonzero"/><path d="M635.29 302.69h-.037a.838.838 0 0 1-.814-.862c.011-.35.239-.64.551-.755.254-.259.786-1.112 1.023-1.49.188-.302.349-.557.452-.696 1.086-1.476 2.292-2.898 3.459-4.274l.41-.484c.285-.337.561-.678.837-1.02.52-.641 1.059-1.306 1.652-1.936.087-.092.194-.193.303-.297.098-.092.25-.236.326-.325a.842.842 0 0 1 .77-.652.84.84 0 0 1 .896.78c.038.588-.422 1.022-.828 1.404-.084.08-.167.157-.234.229-.55.584-1.045 1.194-1.568 1.841-.284.35-.568.702-.861 1.047l-.411.486c-1.149 1.354-2.336 2.753-3.388 4.183-.087.118-.221.336-.38.59-.984 1.576-1.463 2.232-2.158 2.232z" fill="#023CE8" fill-rule="nonzero"/><path d="M640.528 293.606a.842.842 0 0 1-.815-.623c-.226-.851-.185-1.782-.148-2.603.013-.294.026-.584.026-.862 0-.17-.014-.374-.03-.592-.053-.772-.113-1.645.217-2.282a.847.847 0 0 1 1.134-.362c.415.21.58.712.367 1.122-.116.225-.063.995-.035 1.409.017.26.034.504.034.706 0 .301-.014.615-.028.935-.034.737-.067 1.499.094 2.106a.834.834 0 0 1-.816 1.046zM643.807 288.97a.84.84 0 0 1-.842-.795c-.04-.852.115-1.788.265-2.692.134-.804.271-1.637.209-2.163a.835.835 0 0 1 .738-.926.84.84 0 0 1 .936.73c.09.76-.06 1.667-.22 2.629-.135.82-.275 1.667-.244 2.344a.838.838 0 0 1-.842.874zM644.37 297.5a.843.843 0 0 1-.768-.49.83.83 0 0 1 .419-1.104c1.077-.485 2.256-.83 3.397-1.165.498-.146.992-.29 1.469-.445a.844.844 0 0 1 1.063.534.832.832 0 0 1-.54 1.052c-.49.16-1 .31-1.513.46-1.085.317-2.207.646-3.177 1.082a.847.847 0 0 1-.35.075zM647.648 292.4a.84.84 0 0 1-.84-.779.838.838 0 0 1 .786-.887c.193-.013.48-.152.755-.287a8.13 8.13 0 0 1 .5-.23c.505-.202 1.042-.327 1.56-.449.608-.141 1.182-.275 1.613-.51a.85.85 0 0 1 1.145.33.83.83 0 0 1-.334 1.134c-.632.342-1.346.51-2.036.67-.478.112-.93.218-1.314.372-.126.05-.256.115-.388.18-.405.196-.863.42-1.39.454a.633.633 0 0 1-.057.002zM608.906 339.485a.85.85 0 0 1-.395-.097.835.835 0 0 1-.448-.73 236.192 236.192 0 0 1 0-3.625c.004-.959.01-1.918.005-2.872a.839.839 0 0 1 .84-.839h.003a.84.84 0 0 1 .843.83c.005.96 0 1.925-.005 2.89-.004.666-.007 1.332-.008 1.996l.049-.035c1.031-.75 2.098-1.526 2.985-1.89a.847.847 0 0 1 1.103.45.831.831 0 0 1-.455 1.09c-.7.288-1.727 1.035-2.635 1.695-.502.364-.975.709-1.417.998a.845.845 0 0 1-.465.139z" fill="#023CE8" fill-rule="nonzero"/><path d="M608.951 339.123h-.02a.84.84 0 0 1-.823-.855c.034-1.39 1.002-2.855 1.78-4.032.152-.232.297-.451.422-.652a212.782 212.782 0 0 1 2.076-3.242c.403-.62.805-1.241 1.203-1.864.328-.511.709-.944 1.077-1.363.19-.215.379-.43.556-.652a.848.848 0 0 1 1.184-.14c.366.285.43.81.14 1.172-.194.244-.4.48-.609.716-.34.388-.665.755-.923 1.16-.4.625-.805 1.248-1.209 1.872-.693 1.068-1.387 2.138-2.06 3.216-.131.213-.284.444-.446.689-.625.947-1.483 2.244-1.505 3.16a.839.839 0 0 1-.843.815z" fill="#023CE8" fill-rule="nonzero"/><g fill-rule="nonzero"><path fill="#48495A" d="M572.782 291.196l85.763-52.955-.589 4.008-76.647 47.65z"/><path fill="#E1E1E1" d="M581.309 289.899l-6.184 27.625-4.966 3.43 2.623-29.758z"/><path fill="#E64401" d="M571.275 308.29l1.507-17.094 26.028-16.062v3.885l-17.501 10.88-3.169 14.154z"/></g><path d="M580.423 283.758c10.533-7.062 20.442-14.981 30.938-22.096 5.262-3.567 10.65-6.972 15.977-10.446 2.587-1.687 5.256-3.232 7.849-4.907 1.339-.864 3.326-1.726 4.38-2.946.38-.443.284-.973-.172-1.31l-.082-.06c-.87-.648-1.71.802-.85 1.44l.08.06-.17-1.31c-1.114 1.292-3.441 2.301-4.857 3.215-2.623 1.695-5.325 3.265-7.943 4.973-5.31 3.464-10.668 6.871-15.914 10.427-10.212 6.922-19.839 14.648-30.088 21.52-.894.6-.052 2.046.852 1.44z" fill="#83CCFA" fill-rule="nonzero"/></g><g><path d="M241.638 536.827s-10.428-2.556-12.546-8.448c-2.119-5.892 8.01-9.933 8.01-9.933l51.416-27.59s8.5-4.275 13.628-15.404c2.824-6.13.7-13.19.7-13.19l-1.286-4.101 101.708 35.404s4.275.94 4.275 16.768c0 15.827-6.113 19.4-6.113 19.4l-36.651 30.634s-3.79 5.385-15.216 7.469c-11.425 2.084-23.508-2.622-23.508-2.622l-84.417-28.387z" fill="#C9DAEC"/><path d="M128.578 141.84l394.748 132.39c4.984 1.675 9.025 7.032 9.025 11.965v243.997c0 4.933-4.04 7.575-9.025 5.9l-394.748-132.39c-4.984-1.675-9.026-7.032-9.026-11.965V147.741c0-4.934 4.041-7.575 9.026-5.9z" fill="#48495A"/><path fill="#FFF" d="M139.225 166.76L514.02 292.864V511.17L139.225 385.068z"/></g><g><path fill="#FFD819" d="M343.192 296.695l-8.5-21.102-58.633-19.75-26.861 116.931 149.148 50.238 22.922-100.019z"/><path d="M393.246 394.554c13.752 4.64 24.9 19.662 24.9 33.553 0 13.89-11.148 21.389-24.9 16.749-13.751-4.64-24.899-19.662-24.899-33.552s11.148-21.39 24.899-16.75z" fill="#3D3D3D"/><path d="M408.38 416.346l-6.73-9.07c-1.126-1.517-2.953-2.133-4.079-1.375l-6.73 4.527c-1.127.757-1.127 2.602 0 4.12l1.644 2.214-1.744 1.172-1.643-2.213c-1.127-1.518-2.953-2.135-4.08-1.377l-6.73 4.527c-1.126.757-1.126 2.602 0 4.119l6.73 9.07c1.127 1.518 2.953 2.134 4.08 1.376l6.73-4.527c1.126-.758 1.126-2.602 0-4.12l-1.644-2.214 1.744-1.173 1.643 2.214c1.126 1.518 2.953 2.134 4.079 1.376l6.73-4.526c1.126-.758 1.126-2.602 0-4.12zm-16.976 10.032l-3.335 2.243c-.558.374-1.463.068-2.021-.682l-3.335-4.495c-.558-.752-.558-1.666 0-2.041l3.335-2.243c.539-.363 1.4-.085 1.961.613l-.645.433c-.615.414-.615 1.424 0 2.254l1.213 1.633c.616.83 1.615 1.168 2.23.754l.646-.434c.503.736.49 1.602-.049 1.965zm12.553-8.444l-3.336 2.243c-.54.364-1.4.086-1.961-.613l.562-.378c.616-.414.616-1.424 0-2.254l-1.212-1.634c-.616-.83-1.615-1.167-2.231-.753l-.563.379c-.504-.737-.49-1.603.049-1.966l3.335-2.243c.558-.374 1.463-.069 2.022.682l3.335 4.494c.557.754.557 1.667 0 2.043z" fill="#FFF"/><path d="M187.479 232.084c21.193 10.847 44.81 15.963 65.965 26.884 1.284.663 2.42-1.257 1.135-1.92-21.157-10.924-44.774-16.04-65.965-26.884-1.286-.659-2.424 1.26-1.135 1.92zM209.78 278.807c5.029 2.351 10.635 3.021 16.044 4.056 6.54 1.252 12.845 3.48 19.456 4.4 1.417.196 2.029-1.947.597-2.146-6.33-.88-12.394-2.928-18.634-4.235-5.451-1.143-11.234-1.614-16.329-3.996-1.303-.61-2.445 1.308-1.134 1.92zM207.05 299.314c12.78 4.726 25.968 8.208 38.98 12.237 1.387.429 1.976-1.72.597-2.146-13.012-4.028-26.2-7.51-38.98-12.237-1.36-.504-1.943 1.648-.597 2.146zM398.868 306.432c3.595 1.634 7.41 2.637 11.226 3.632 4.706 1.228 9.233 2.764 13.807 4.405 2.186.784 4.392 1.49 6.618 2.15 2.313.684 1.471 1.436.26 2.888-2.455 2.942-5.445 5.738-6.754 9.4-.261.73.407 1.355 1.085 1.409 5.476.438 10.769 1.946 16.192 2.741 1.418.208 2.028-1.935.597-2.145-5.623-.824-11.109-2.366-16.79-2.82l1.085 1.407c1.467-4.103 5.367-6.82 7.697-10.412 1.554-2.398-.717-3.88-2.774-4.614-5.257-1.875-10.634-3.83-16-5.373-5.052-1.452-10.31-2.405-15.114-4.589-1.308-.595-2.452 1.323-1.135 1.921zM281.636 406.664c6.584 1.25 13.229 2.167 19.786 3.553 6.983 1.477 13.745 3.744 20.693 5.346 1.314.303 1.849-1.294.866-2.033-3.657-2.75-7.819-4.644-11.806-6.86l-.568 2.074c13.704 1.729 27.012 5.498 40.368 8.86 1.406.353 2.002-1.793.597-2.146-13.56-3.413-27.053-7.183-40.965-8.939-1.148-.145-1.48 1.565-.567 2.073 3.987 2.216 8.15 4.11 11.806 6.86l.866-2.033c-6.603-1.522-13.058-3.595-19.665-5.119-6.87-1.585-13.89-2.466-20.814-3.78-1.416-.27-2.02 1.873-.597 2.144zM482.46 367.921a49.98 49.98 0 0 0-2.055-.813c.032-.892.032-1.785-.011-2.676-.05-1.045-1.156-1.372-1.92-.787-.856.657-1.7 1.332-2.542 2.009a76.413 76.413 0 0 0-4.797-1.183c-.737-.157-1.742.525-1.383 1.369a17.113 17.113 0 0 0 1.815 3.221 41.232 41.232 0 0 1-2.985 2.012c-.46.28-.592.723-.51 1.13-.887.542-.726 2.166.516 2.055 2.135-.192 4.092-1.166 6.135-1.796a16.46 16.46 0 0 0 3.042 2.015c.635.323 1.46.06 1.651-.665.25-.94.447-1.892.604-2.85a15.296 15.296 0 0 0 2.44-1.12c.661-.382.803-1.58 0-1.921zM455.908 306.439a82.422 82.422 0 0 1-1.835-.373c-.113-1.01-.26-2.019-.472-3.022-.175-.826-1.315-1.066-1.88-.49a31.684 31.684 0 0 0-2.279 2.604c-1.26-.192-2.529-.312-3.812-.289-1.024.02-1.431 1.178-.795 1.9.655.743 1.37 1.423 2.112 2.074a27.729 27.729 0 0 0-1.304 2.556 1.179 1.179 0 0 0-.094.364c-.234.834.66 1.87 1.632 1.297.97-.571 1.976-1.073 2.99-1.557.82.667 1.63 1.347 2.394 2.078.677.65 1.962.211 1.92-.786-.047-1.101-.087-2.2-.144-3.297a28.466 28.466 0 0 0 1.836-1.027c.767-.472.737-1.843-.27-2.032zM434.447 292.751c.38-.525.737-1.067 1.05-1.643.374-.69-.079-1.742-.971-1.674-.844.065-1.756.175-2.682.344a45.166 45.166 0 0 0-1.161-1.13c-.476-.445-1.468-.46-1.766.224a8.245 8.245 0 0 0-.554 1.875c-1.34.531-2.565 1.246-3.487 2.211-.613.642-.297 1.573.497 1.86.977.352 1.971.643 2.973.904.062.78.123 1.56.136 2.334.026 1.432 2.275 1.435 2.25 0a13.806 13.806 0 0 0-.018-.475c.25-.385.517-.758.794-1.123 1.14.242 2.283.472 3.422.723.992.219 1.718-.75 1.27-1.634a19.09 19.09 0 0 0-1.753-2.796z" fill="#83CCFA" fill-rule="nonzero"/><g fill="#83CCFA" fill-rule="nonzero"><path d="M207.161 366.656c8.245.942 16.454 2.19 24.737 2.78 1.448.104 1.438-2.121 0-2.224-8.283-.59-16.492-1.839-24.737-2.781-1.439-.165-1.423 2.062 0 2.225zM206.974 356.644c-7.7-.475-15.51-2.109-22.342-5.757a24.227 24.227 0 0 1-8.193-7.122c-1.046-1.428-2.197-3.268-1.827-5.1.608-3.019 6.142-1.283 7.807-.529 1.296.587 2.4-1.167 1.135-1.92-7.372-4.391-17.26-20.629-6.313-26.282 6.84-3.532 14.41.27 19.313 5.146 4.857 4.83 8.401 11.741 8.921 18.574.081 1.062 1.503 1.57 2.096.561 2.766-4.708 8.2-7.05 13.407-4.746 5.394 2.387 5.058 7.874 1.892 11.967-.702.908.635 2.086 1.538 1.521 5.286-3.304 11.275.777 13.733 5.618 2.896 5.704-2.365 7.123-6.434 9.148-.596.297-.787 1.318-.228 1.747 3.297 2.53 8.045 3.734 10.319 7.378.76 1.217 2.706.101 1.942-1.124-2.482-3.976-7.113-5.097-10.67-7.827l-.228 1.747c2.453-1.22 5.372-2.022 7.21-4.154 1.976-2.294 1.096-5.563.032-8.038-2.638-6.136-10.776-10.187-16.81-6.415l1.539 1.522c4.02-5.198 3.572-11.89-2.7-15.01-6.184-3.078-13.174-.088-16.483 5.544l2.095.562c-1.03-13.526-15.382-33.017-31.046-25.9-13.462 6.117-3.247 25.03 5.742 30.383l1.135-1.92c-3.065-1.388-9.21-2.842-10.894 1.32-1.558 3.848 2.046 7.974 4.517 10.593 7.258 7.688 19.651 10.113 29.796 10.74 1.448.087 1.44-2.138-.001-2.227zM166.341 315.293c-2.102-4.522.684-9.249 4.657-11.642 1.236-.744.107-2.67-1.135-1.92-5.124 3.084-8.092 9.03-5.464 14.685.606 1.302 2.544.171 1.942-1.123zM158.397 305.547c-.39-1.024.262-1.789 1.022-2.44 1.098-.941-.5-2.508-1.59-1.573-1.33 1.14-2.265 2.86-1.601 4.604.507 1.33 2.681.754 2.169-.59z"/></g></g><g><path d="M94.576 628.222l4.164 10.29s1.682 6.264 9.165 9.992c12.897 6.427 48.18 7.142 73.817-9.535 25.845-16.812 38.02-25.938 38.02-25.938s8.198-6.895 12.257-13.46c4.059-6.567 4.135-8.514 4.135-8.514L94.576 628.222z" fill="#454657"/><path d="M236.095 591.41c1.016-4.252 1.826-9.35-10.02-18.804-15.055-12.016-80.084-13.25-109.72 6.76-29.636 20.01-22.776 44.417-22.776 44.417s-.062 8.439 10.035 14.763c5.29 3.312 18.31 7.891 38.04 2.454 20.61-5.68 29.83-14.668 47.682-26.113 17.852-11.445 43.97-11.803 46.76-23.478z" fill="#C9DAEC"/><path d="M187.582 569.866s3.824-7.245 12.4-7.705c8.576-.459 10.569 7.524 10.569 7.524s-4.21.342-11.27.892c-9.964.777-11.7-.711-11.7-.711z" fill="#454657"/></g><g><path d="M647.127 433.313c-4.01 1.835-8.387 3.285-12.789 2.034-1.687-.479-3.08-1.693-4.511-2.713.466.185.953.346 1.474.465 2.76.63 5.863.353 8.157-1.37.116-.087.207-.186.287-.288 1.069-.555 1.289-2.335-.154-2.532-2.357-.322-4.144-.99-6.103-2.331-1.663-1.14-3.274-2.224-5.165-2.975-3.788-1.504-7.306-1.426-11.275-.83-2.976.446-6.126 1.19-8.527 3.038a1.369 1.369 0 0 0-.356-.53c-2.426-2.297-6.318-.083-8.388 1.65-3.313 2.777-1.544 7.667 1.34 9.957.128.1.26.168.394.221.157.265.41.486.788.6.757.229 1.535.332 2.319.361-.168.74.089 1.573.45 2.244.336.628 1.17.838 1.8.553a1.07 1.07 0 0 0 .349-.054c.872-.31 1.8-.832 2.021-1.751.492.637 1.326.913 2.15 1.013.246.03.456 0 .634-.07.149.307.427.559.865.67 2.288.577 4.811 1.586 7.214 1.205 3.07-.486 5.582-2.757 8.807-1.908 2.85.75 4.932 2.462 7.986 2.812 2.848.327 5.798-.63 8.092-2.25a1.4 1.4 0 0 0 .574-.835c1.68-1.111 2.9-2.624 3.633-4.816.422-1.265-1.037-2.04-2.066-1.57z" fill="#FFF" fill-rule="nonzero"/><path d="M615.669 507.606c-1.126-1.646-2.569-3.595-3.281-5.455-.223-.583-.874-.674-1.298-.45a.857.857 0 0 0-.275-.132c-.477-.134-2.122-.225-3.201.098-.035-.13-.074-.263-.098-.396-.198-1.057-1.823-.609-1.627.443.29 1.558 1.407 2.793 2.38 3.998.988 1.226 2.04 2.394 2.905 3.71 1.573 2.392-1.096 3.32-2.445 4.367-.841.653.306 1.792 1.148 1.208.14.287.427.51.76.495 2.528-.119 4.762-2.17 6.022-4.215.8-1.296-.294-2.653-.99-3.67zM625.161 508.313c-1.055-1.557-2.177-3.105-3.11-4.738-.166-.29-.46-.317-.697-.209-.628-.527-1.562-.747-2.348-.843-.485-.06-1.125.004-1.499.292a56.217 56.217 0 0 0-1.482-1.438c-.527-.493-1.323.292-.795.786 1.547 1.45 2.756 2.796 3.949 4.553 1.786 2.63 4.674 5.595.978 8.201-.585.412-.024 1.378.568.96.123-.086.238-.173.352-.261.089.085.214.141.383.129 1.773-.125 3.739-1.666 4.457-3.314.322.088.733-.08.743-.51.034-1.406-.734-2.48-1.499-3.608zM598.087 457.025c.02-.521-.389-1.054-1.026-.834-3.883 1.34-5.363-3.252-5.584-6.238-.151-2.027.548-3.953 2.214-5.202 1.326-.993 3.106-1.233 4.372-2.338 1.464-1.28 2.591-3.752.385-4.894-2.363-1.223-5.552 1.032-7.23 2.425-5.532 4.592-6.26 13.317-2.04 18.931 1.012 1.346 4.73 6.099 6.979 5.083 2.07-.935 3.035-4.603 2.222-6.56a.874.874 0 0 0-.292-.373z" fill="#FE9088" fill-rule="nonzero"/><path d="M614.735 442.946c.035-.13.074-.26.108-.393.502-1.953-.79-2.652-2.519-2.522-1.132.084-2.25-.283-3.376-.058-.934.186-1.096.642-2.338.74-1.647.132-1.825-1.468-1.976-2.503-.042-.29-.334-.496-.59-.583-.437-.277-.876-.553-1.314-.828-.43-.368-1.004-.297-1.324.169-1.643 2.388-1.95 5.306-1.611 8.119.156 1.291.575 2.496 1.19 3.639 1.515 2.818.159 4.993-2.118 6.776-.288.225-.338.507-.25.758a.862.862 0 0 0-.137.388c-.184 1.76.851 3.731 2.616 4.313 2.095.69 3.652-.598 4.577-2.363a.84.84 0 0 0 .1-.397 1 1 0 0 0 .224-.02.864.864 0 0 0 .35.786c.177.134.356.25.537.355-.004.009-.009.016-.012.025-.313.943-.19 2.159.421 2.99a.702.702 0 0 0-.142.603c.023.352.2.663.592.77a.84.84 0 0 0 .361.003c.03-.001.057.001.087-.003 5.089-.685 9.205-4.083 10.914-8.853 1.511-4.216-.256-9.831-4.37-11.91zm-8.09 14.43a.847.847 0 0 0-.044-.185c-.858-2.315-.871-4.229 1.44-5.768 1.058-.704 2.327-1.126 3.26-2.019.466-.445.868-.92 1.226-1.418 1.276 1.84 1.954 3.884 1.436 6.25-.607 2.769-4.233 5.198-6.764 3.29-.193-.144-.383-.182-.554-.15z" fill="#FE9088" fill-rule="nonzero"/><path d="M636.756 494.077c-1.93-2.138-4.752-2.98-7.181-4.422-3.168-1.88-5.728-5.03-8.534-7.395-5.425-4.573-12.842-10.06-11.992-17.946.067-.43.198-.622.079-.819-1.477-2.085-1.336-5.579-1.336-5.579s-.337-.423-.596-.7c-.159-.297-.35-.578-.532-.871-.05-.081-.082-.296-.155-.306-.103-.014-.247.209-.313.288-.012.01-.414.72-.514.965-.01.024-.01.045-.012.067-.942 1.714-2.324 3.32-4.505 2.876-2.056-.417-1.765-3.208-1.23-4.622.089-.234-.027-.722-.027-.722s-2.201.75-2.766 1.113a.533.533 0 0 0-.249.566.901.901 0 0 0-.03.193c-.198 4.552-3.12 8.175-4.837 12.246-1.656 3.925-2.64 8.122-3.137 12.337-.513 4.356.259 8.793 1.213 13.036.917 4.074 2.02 7.159 5.228 9.88.257.218.55.252.808.175 3.604 1.126 6.808-.315 10.33-1.301 4.597-1.286 8.4.612 12.884.999 3.032.261 6.761-.114 9.51-1.476 3.2-1.587 5.047-4.414 7.449-6.915.241-.251.329-.534.313-.803.262-.177.407-.559.132-.864zM686.067 524.546c-.885-1.23-2.052-2.233-2.936-3.462-2.206-3.068.963-7.315 3.087-9.407.596-.587-.005-1.625-.82-1.394-1.86.527-3.688 1.157-5.552 1.668-.026.008-.047.019-.071.028-3.034.454-5.872.94-8.745 2.215-2.261 1.002-4.32 1.875-6.802 2.16-2.24.257-4.539.1-6.787.087-.025 0-.044.005-.067.006-.86-.25-1.933.638-1.325 1.598 1.145 1.813 1.767 3.877 2.917 5.685 1.163 1.83 2.74 3.392 4.215 4.97.34.362.749.41 1.101.278.618.338 1.27.622 1.927.85.032.534.387 1.077 1.07 1.144 2.435.24 4.83-.073 7.262-.18 2.38-.104 4.697-.125 7.022-.693.077-.02.146-.045.212-.075a32.03 32.03 0 0 0 2.669-.343c.044-.007.08-.022.12-.033a.746.746 0 0 0 .508-.027c2.642-1.002 2.478-3.014.995-5.075z" fill="#90D0F9" fill-rule="nonzero"/><path d="M668.505 529.844c-.933-1.166-2.032-2.098-3.22-2.993-.863-.65-2.378-1.159-3.134-.457-.317.019-.626.178-.831.54-.739 1.306.118 2.814.829 3.937.821 1.298 1.837 2.46 3.097 3.35 1.136.803 3.406 1.62 4.283-.016.827-1.542-.03-3.117-1.024-4.361zM679.719 532.988c-.06-.745-.469-1.51-1.002-2.238-.49-1.015-1.255-1.93-1.99-2.738-.739-.813-1.72-1.728-2.814-2.27-.726-.5-1.509-.806-2.281-.616-.057.014-.1.036-.15.054a1.024 1.024 0 0 0-.566.061c-4.16 1.615 1.998 7.719 4.017 8.868 1.592.907 5.032 1.918 4.786-1.12zM686.571 529.955c-.83-1.146-1.786-2.117-2.868-3.033-.828-.702-1.795-1.68-2.843-2.057-.718-.257-1.64-.186-2.088.519-.058.09-.1.18-.14.272-2.176 1.323 1.289 5.202 2.197 6.23 1.34 1.515 4.897 5.064 6.993 2.723 1.283-1.432-.394-3.47-1.25-4.654zM694.485 514.097c-.693-.129-1.38-.127-2.068-.075-1.835-.217-3.898.136-5.807.583-3.47.324-6.877 1.073-10.21 2.105-1.723.423-3.403.929-4.987 1.568a.904.904 0 0 0-.297.193c-.673.315-.655 1.386.047 1.552.102.09.223.167.367.222.116.046.24.073.366.09.074.033.15.059.233.068 2.132.244 4.277.093 6.419.175 1.62.063 3.395.053 4.9-.637 1.943-.891 3.688-1.885 5.768-2.465 1.541-.43 3.023-.873 4.35-1.776a.83.83 0 0 0 .201-.203c.085-.036.168-.08.252-.121a.475.475 0 0 0 .142-.071c.035-.019.073-.033.107-.054l.006-.005.21-.079c.471-.171.6-.959.001-1.07zM627.106 510.925c-.087-.248-.515-.53-.693-.435-.297.158-.362.872-.36.916-.082.135-.394.702-.477.837-.602.714-1.257 1.38-1.878 2.077-.008.009-.01.017-.014.025-.632.457-1.311.833-2.108.945-.25.035-.585.094-.835.046-.141-.027-.271-.132-.404-.178.045-.259-.355-.447-.525-.178-.24.38-.409.805-.347 1.258.046.338.303.516.598.594.192.118.424.183.667.192 1.148.275 2.78-.525 3.47-1.151 1.125-1.021 3.503-3.232 2.906-4.948zM617.542 510.625a1.13 1.13 0 0 0-.353-.833c-.128-.122-.361-.107-.45.058-.11.206-.165.436-.286.637a.255.255 0 0 0-.036.158c-.293.983-1.503 1.697-2.22 2.374-.34.317-.683.63-1.027.94-.28.09-.548.203-.799.357-1.057.33-2.003.152-2.96-.323-.026-.03-.058-.054-.088-.08-.148-.407-.838-.506-1.064-.022a.754.754 0 0 0-.21.24 1.098 1.098 0 0 0-.081.94c.074.375.375.68.766.874.745.692 2.023.939 3.03.448 1.413-.688 2.543-1.916 3.672-2.978.803-.756 1.808-1.396 2.103-2.516a.553.553 0 0 0 .003-.274z" fill="#0236EC" fill-rule="nonzero"/><path d="M661.63 522.343c-.069-.41-.264-.801-.486-1.158-.339-.54-.873-1.153-1.539-1.27-.288-.052-.622.072-.69.388-.155.706.255 1.44.672 1.985.33.431.743.824 1.247.97a.53.53 0 0 0 .319.058c.106.007.214.005.326-.012.535-.08.499-.7.151-.961zM664.973 522.729c.153-.367-.02-.833-.15-1.175a.56.56 0 0 0-.283-.309c-.304-.564-.735-1.07-1.24-1.367-.293-.173-.693-.285-1.012-.175a.667.667 0 0 0-.361.293c-.246.415-.015 1.012.213 1.384.386.63 1.037 1.325 1.705 1.662.253.127.537.16.773.053a.552.552 0 0 0 .355-.366z" fill="#FE9088" fill-rule="nonzero"/><path d="M609.512 468.977c-5.009 2.749-12.603 3.3-17.41-.15-.808 1.195-.852 1.9-1.001 2.568 5.604 4.022 13.647 3.271 19.466.079-.386-.921-.714-1.786-1.055-2.497z" fill="#FFF" fill-rule="nonzero"/><path d="M600.729 436.693c-2.957-1.273-3.525-5.916-2.084-8.428.802-1.399 2.208-2.29 3.658-2.926 1.335-.586 2.737-1.254 4.891-.813M606.026 440.609a1.638 1.638 0 0 1-.65-.536c-.473-.646-.5-1.497-.261-2.236.47-1.456 2.072-2.677 3.586-1.815 1.138.649.732 2.656.17 3.54-.575.905-1.879 1.484-2.845 1.047zM608.892 439.473c1.31.333 3.07.701 4.417.418M602.392 436.229c.473.785 1.673 1.427 2.648 1.88M604.875 434.607c-1.301-2.443.354-5.548 1.932-7.438.983-1.178 2.281-2.01 3.679-2.634 3.026-1.351 6.548-2.261 9.861-2.484 3.52-.236 6.747.78 9.82 2.405 2.93 1.549 5.748 3.2 9.103 3.645 2.054.272 4.094.046 5.954-.89.799-.402 2.707-1.271 2.847-2.894" stroke="#0236EC" stroke-width=".984" stroke-linecap="round" stroke-linejoin="round"/><path d="M609.233 434.144c-.535-2.375 1.644-4.47 3.645-5.357 1.987-.879 4.395-1.237 6.555-1.023 2.326.23 4.094 1.504 5.974 2.756 1.849 1.23 3.745 2.156 5.974 2.458 1.746.237 4.282.532 5.774-.642" stroke="#0236EC" stroke-width=".984" stroke-linecap="round" stroke-linejoin="round"/><path d="M615.276 436.74c.464-1.652 2.23-2.517 3.714-3.079 1.65-.625 2.875-.268 4.452.415.934.406 1.872.777 2.844 1.087M616.541 441.282c1.457.52 2.677 1.349 4.292.944 1.49-.372 2.703-1.4 4.14-1.912 1.43-.508 3.05-.655 4.401.155.788.473 1.47 1.091 2.29 1.519.837.436 1.752.724 2.677.916 2.955.614 6.186.304 9.032-.651 1.584-.532 2.988-1.447 4.386-2.337.478-.304 3.434-1.83 3.217-2.297" stroke="#0236EC" stroke-width=".984" stroke-linecap="round" stroke-linejoin="round"/><path d="M638.186 441.004c1.927-.63 3.872-.789 5.73-1.676 3.174-1.515 5.59-4.224 8.802-5.654 2.237-.996 4.667-1.03 7.071-.816.065.078-.027 0-.052-.012M590.351 439.892c-.238.019-.533-.2-.418-.469.174-.408.86.013.465.283M589.133 442.673c-.668.053.127-1.08.328-.186M590.96 445.268c-.629-.376.185-.831.188-.278M594.334 446.334c-.874-.096.319-.885.187-.139M613.683 450.135c-.85.264-2.528 1.19-1.867 2.272.963 1.578 3.723.407 4.977.045 1.394-.404 3.257-1.072 4.14-2.308.593-.83-.3-1.195-1.066-1.4M600.283 463.207c-.377-.079-.499-.55-.232-.833.454-.482 1.276.055.841.647M600.237 468.027c-.618.074-.936-1.07-.422-1.356.85-.475 1.352 1.007.422 1.17M618.415 452.035c.906.525 2.241.537 3.3.83 4.438 1.23 8.767 3.06 12.228 6.136 3.384 3.009 6.837 6.198 8.608 10.443 2.927 7.018 4.21 15.12 2.824 22.635-1.312 7.106-3.901 15.612 1.662 21.66 2.046 2.224 5.348 4.886 8.368 5.604a1.417 1.417 0 0 1-.26-.1M662.36 516.232c-.045-.84.302-2.27 1.322-2.357 1.13-.095 2.175 1.182 2.897 1.854a15.318 15.318 0 0 1 2.45 2.923c1.406 2.168 2.369 4.675 2.708 7.234.14 1.055.13 2.74-.468 3.678-.575.904-2.59 1.89-3.498.921M691.876 531.876c.456.003.913-.254 1.327-.415 1.97-.768 3.922-1.51 5.933-2.175 2.089-.69 4.13-1.462 6.174-2.27.823-.324 1.66-.85 2.518-1.05M707.759 523.672c-1.136.056-.916-1.952-.763-2.574.455-1.865 1.767-2.475 3.526-2.92 1.447-.366 4.829-1.032 5.526 1.031.477-1.648 3.237-2.977 4.637-3.764 2.014-1.131 4.458-1.68 6.771-1.707 1.403-.016 2.77.602 3.218 2.007.38 1.193-.455 1.605-.917 2.482.707-.412 1.529-.47 2.331-.46 1.512.02 4.092.035 5.195 1.242.824.902.952 2.653.347 3.686-.786 1.34-3.281 2.162-4.783 2.089M697.358 532.223c8.055-1.777 16.458-1.852 24.596-3.198" stroke="#0236EC" stroke-width=".984" stroke-linecap="round" stroke-linejoin="round"/><g><path d="M289.022 576.359a1.595 1.595 0 0 0-.103-.639c.417-.606.418-1.484-.42-1.937-4.832-2.618-9.143-6.397-9.001-12.358.042-1.795-2.769-1.79-2.811 0-.015.636.025 1.245.091 1.844a1.496 1.496 0 0 0-.301-.09l-.001-.015c-.052-1.79-2.863-1.795-2.811 0 .184 6.35 4.544 12.227 9.574 15.798 1.402.995 3.778 2.067 4.994.134.084-.133.151-.267.21-.401.206-.179.39-.405.527-.695.354-.742.312-1.279.052-1.641zM324.334 557.184c-.064-1.492-2.533-1.987-2.76-.37-.018.123-.026.248-.041.37h-.01l.002.068-.01.082a1.756 1.756 0 0 0-.329-.007c-.005-.129-.008-.257-.015-.387-.098-1.783-2.91-1.793-2.81 0 .263 4.78-.464 8.43-4.333 11.532-1.14.915-.044 2.37 1.156 2.296.023.564.394 1.016.935 1.203.643 1.09 1.872 1.95 2.967 1.919.579.858 2.199.95 2.562-.346.673-2.399 1.457-4.762 1.986-7.197.039-.119.081-.238.117-.356.85-2.771.706-5.957.583-8.807zM308.183 554.118c-.83-1.149-2.538-.506-2.673.541-2.58-.118-6.37 3.56-7.637 4.63-1.884 1.59-4.618 4.202-5.291 6.689l-.028-.09a1.357 1.357 0 0 0-.523-.73c-.825-1.523-3.183-.132-2.397 1.453.248.498.459 1.012.666 1.527.318 1.1.597 2.208.819 3.332-.25.824.57 1.66 1.385 1.69.158.268.42.488.817.59 3.142.815 6.232.706 9.434.298 1.86-.237 5.688-.93 6.767-2.74.74.501 1.89.386 2.106-.72 1.156-5.898.099-11.566-3.445-16.47zM295.333 622.788c-.555-2.1-.975-3.935-.918-6.137.053-2.008.85-3.828 1.036-5.792.104-1.102-1.208-1.342-1.877-.746-1.164-.488-2.287-1.068-3.445-1.572.124-.285.246-.572.363-.863.535-1.335-1.64-1.909-2.169-.59-.713 1.777-1.756 3.441-2.007 5.37-.32 2.451-.18 4.873.458 7.264.676 2.53 2.453 4.272.293 6.638-.682.746-1.517 1.569-1.454 2.646.023.4.22.68.483.855 1.297 2.354 6.552-.003 7.992-1.214 1.97-1.657 1.868-3.497 1.245-5.86zM317.261 628.09c1.44 1.211 6.696 3.568 7.992 1.215.264-.176.46-.456.483-.855.063-1.078-.772-1.9-1.453-2.647-2.162-2.365-.384-4.108.292-6.638.638-2.39.78-4.812.459-7.263-.253-1.93-1.296-3.594-2.008-5.371-.528-1.318-2.704-.744-2.168.59.116.29.238.578.362.863-1.158.504-2.28 1.084-3.445 1.572-.668-.596-1.98-.357-1.877.746.186 1.964.984 3.784 1.036 5.792.058 2.202-.363 4.038-.918 6.137-.623 2.363-.724 4.203 1.245 5.859z" fill="#FE9088" fill-rule="nonzero"/><path d="M327.88 587.648c.228-5.017-2.052-10.127-5.151-14.02.042-.707-.508-1.436-1.364-1.131-1.915.68-4.164.038-5.245-1.496-.162-.611-.354-1.168-.624-1.659-.02-.191-.19-1.658-.19-1.658s-.466.104-1.056.104l-.714-.15c-.232-.091-1.419-.742-1.419-.742s-.306.59-.607 1.014c-3.036 4.298-7.693 5.753-12.824 5.54-1.659-.069-3.474-.414-4.94-1.211-.778-.423-2.629-1.264-2.629-1.264s-2.244 1.193-3.231 1.994c-.293.238-.4.736-.29 1.083.539 1.674.346 5.087-2.02 5.242-.204.014-1.462.174-1.462.174s.016.644.022 1.008c.078 4.631-.42 9.09 1.034 13.58.567 1.75 1.655 3.347 2.573 4.927 1.674 2.884 1.272 4.794.097 7.682-.193.474-.105.865.127 1.152.74 2.638 4.72 4.035 7.067 4.555.453.1.819-.054 1.065-.316.107-.059.213-.136.31-.248 1.496-1.715 2.885-2.859 5.289-2.957 1.618-.066 3.178.369 4.804.092 2.19-.374 4.074-.729 5.786-.355 1.36.937 2.423 2.726 4.109 2.795a.855.855 0 0 0 .683-.015c.035-.005.07-.007.104-.015a29.17 29.17 0 0 0 1.873-.557c.104-.034.199-.084.288-.14a9.794 9.794 0 0 0 1.113-.534c.729-.35 1.396-.787 1.925-1.334a3.952 3.952 0 0 0 1.007-1.009c.5-.75.518-1.757.522-2.621a1.17 1.17 0 0 0-.043-.31c.04-.525.057-1.053.067-1.562.146-.364.294-.727.444-1.09.18-.216.354-.426.498-.617.972-1.298 1.57-2.697 2.12-4.211 1.122-3.093 1.401-6.486.881-9.72z" fill="#90D0F9" fill-rule="nonzero"/><path d="M276.312 551.387c-4.565 1.718-3.079 9.098-2.647 12.645.19 1.558 5.747.529 5.954-.651.318-1.819.021-2.263.264-4.098.191-1.437.332-2.89.34-4.343.015-2.266-1.337-4.522-3.91-3.553zM322.024 546.442c-1.052-1.655-2.857-3.16-4.486-2.527-.416.008-.825.205-1.094.678-.064.114-.111.228-.165.341-.038.05-.078.091-.116.146-.206.296-.27.588-.236.855-.264 1.178-.062 2.366.287 3.633.747 2.706 1.703 5.378 2.077 8.172.184 1.379 6.27 1.388 6.254-.07-.04-3.771-.444-7.96-2.521-11.228zM310.65 536.512c-.059-.162-.914-2.114-1.744-2.48-.733-.324-1.446.85-1.578 1.807-.264 1.914-2.032 3.778-3.313 4.996-2.19 2.082-4.856 3.65-7.516 5.066-3.258 1.735-7.137 3.387-9.264 6.553-2.833 4.22-1.43 14.086 4.192 15.693 1.887.93 4.333.81 6.26.128 3.699-1.31 3.883-5.267 5.467-8.22 1.11-2.07 3.614-3.357 5.213-5.02 1.3-1.35 2.062-3.11 2.7-4.833 1.669-4.515 1.215-9.245-.416-13.69z" fill="#0236EC" fill-rule="nonzero"/><path d="M328.13 590.514c-2.138 2.114-3.725 3.803-6.394 5.33-2.962 1.697-6.248 2.804-9.507 3.79-7.533 2.282-16.718 2.098-24.194-.118.13 1.006.482 2.003.763 2.28 7.997 2.371 15.961 2.236 24.029-.015a51.14 51.14 0 0 0 9.316-3.624c2.345-1.186 4.005-2.593 5.748-4.273.355-.719.425-2.145.238-3.37zM294.538 622.564c-1.526 1.385-4.524 1.59-6.456 1.072-.022.85-.14 1.105-.46 1.998.041.016.339.168.385.18 2.585.695 5.553.374 7.676-1.306.107-.085-.128-1.528-.529-2.405-.091.027-.506.363-.616.461zM322.274 623.492c-1.312 1.161-5.072.195-6.203-1.47-.322.888-.451 1.166-.44 2.29 2.136 1.944 5.783 2.572 8.047.568-.257-.927-.21-1.808-.352-2.157 0 0-.686.445-1.052.769z" fill="#FFF" fill-rule="nonzero"/><path d="M277.156 543.163c.456.763 1.346 1.33 1.993 1.942.606.572 1.4 1.63 2.035 1.951M283.153 537.508c.135 1.443.949 3.595 1.873 4.728M294.865 533.8c-.084 1.578-.43 3.136-.375 4.728M287.463 565.967c-.712-.378-1.155-1.642-1.483-2.338a17.042 17.042 0 0 1-1.336-4.225c-.346-2.025.095-4.496.756-6.414 1.238-3.592 4.486-6.459 7.617-8.442 6.312-3.996 15.593-10.708 12.624-19.37" stroke="#0236EC" stroke-width=".984" stroke-linecap="round" stroke-linejoin="round"/><path d="M305.735 525.085c5.066 5.02 7.729 12.638 5.607 19.583-.6 1.96-1.516 4.17-2.702 5.857-.094.128-.094.115 0-.039" stroke="#0236EC" stroke-width=".984" stroke-linecap="round" stroke-linejoin="round"/></g><g><path d="M142.243 558.07c-1.362.752-2.544 1.712-3.699 2.714-.532-.37-1.345-.451-1.926.006-2.238 1.756-4.203 3.781-6.183 5.812-1.373 1.407-3.217 2.68-4.002 4.517-.099.127-.2.251-.296.381-.704.957.116 1.88 1.058 1.99.116.03.238.043.367.033 1.283-.104 2.471-.667 3.58-1.446.378.152.813.162 1.205-.065.12-.07.235-.143.35-.216.226.008 1.884-.976 2.08-1.147 1.684-1.478 5.043-5.378 6.414-7.078 1.875-2.324.854-1.013 2.755-3.318.978-1.185-.235-2.995-1.703-2.184zM174.267 545.242c-1.543-.953-2.953 1.454-1.419 2.4.44.272.864.582 1.266.921-.094.035-.184.081-.27.133-.744-.052-1.445.541-1.556 1.233a7.678 7.678 0 0 0-1.414-.413c-1.772-.327-2.528 2.352-.747 2.681 3.6.665 4.716 4.267 4.766 7.49.027 1.791 2.838 1.794 2.81 0a15.67 15.67 0 0 0-.028-.687c.033-.008.064-.018.096-.028.356 1.177 2.337 1.478 2.693.007 1.286-5.308-1.653-10.933-6.197-13.737zM150.425 504.088h-.205c-.053-.02-.105-.041-.169-.046-.424-.032-1.225-.196-1.593-.371-.708-1.121-.126-1.767.93-2.096.792-.449 1.407-.908 1.829-1.717.645-1.236-.103-3.058-.493-4.242-.31-.94-1.715-.64-1.668.217a1.224 1.224 0 0 0-1.213.102c-2.953 1.951-6.075 3.991-8.42 6.666-.899 1.027-1.72 2.253-2.205 3.528-.532 1.4-.647 3.28-1.841 4.3-.331.282-.45.654-.418 1.02-.08.913.757 1.774 1.57 1.639.354.404.904.642 1.433.453 1.7-.61 3.723-.449 5.35-1.181.648-.292.944-.668 1.097-1.094.08.09.167.182.267.272.8.724 1.997-.452 1.193-1.18-1.364-1.234 4.122-4.148 4.983-4.716.678-.447.447-1.553-.427-1.554zM184.714 496.315c-1.4.686-2.487 1.744-3.748 2.642-1.602 1.14-3.352 2.133-5.015 3.187-3.762 2.38-7.69 4.95-11.817 6.666-.972.405-.909 1.682-.272 2.1-.568.802-.972 1.741-1.477 2.722-.435.845.275 1.913 1.27 1.634 3.87-1.084 7.523-4.545 10.658-6.907 3.414-2.572 6.692-4.904 9.645-7.92.957-.77 1.881-1.638 2.295-2.602.435-1.015-.464-2.05-1.539-1.522zM136.364 480.685c-.685.193-1.898.773-3.268 1.514-1.37.74-3.296 1.835-5.403 3.478-.158.123-.316.242-.474.363-.538.37-1.072.746-1.592 1.14-.397.3-.777.62-1.15.947-1.673 1.298-3.262 2.66-4.607 4.395-2.219 2.86-2.828 6.221-2.122 9.367.202 2.306 1.386 4.243 2.65 6.146.376.566.96.715 1.484.603 1.164.623 2.57-.75 1.923-1.86.048-.048.093-.098.133-.151.11.116.219.233.335.345 1.297 1.254 3.286-.711 1.987-1.966-2.48-2.398-3.07-5.623-2.324-8.652 1.554-3.86 4.4-6.584 7.451-9.32a51.65 51.65 0 0 1 4.744-3.032c.126-.042 1.112-.62 1.112-.62s.36-.198.539-.294c1.592-.86.325-2.893-1.418-2.403z" fill="#FE9088" fill-rule="nonzero"/><path d="M165.124 508.95a1.078 1.078 0 0 0-.392-.404c-.24-.204-.572-.306-.972-.2-5.639 1.497-11.567 2.494-17.393 1.576a1.19 1.19 0 0 0-.567.046 1.1 1.1 0 0 0-1.089.24c-1.57 1.384-3.456 2.416-5.589 2.578-1.345.102-3.562-.155-3.87-1.716a1.066 1.066 0 0 0-.192-.445 1.041 1.041 0 0 0-.512-.683c-2.716-1.617-5.396-3.279-7.83-5.296a1.138 1.138 0 0 0-1.173-.19c-.123.015-.249.047-.377.109-2.1 1.019-4.094 2.509-5.362 4.484-.588.47-.872 1.375-.218 2.095 1.87 2.06 4.088 3.706 6.21 5.497 2.483 2.097 3.946 4.597 5.306 7.491 2.981 6.343 4.039 13.846 3.814 20.793-.028.867.615 1.31 1.293 1.337.118.165.286.311.528.42 6.672 3 14.394-4.256 18.1-8.932.2-.253.297-.525.319-.794.526-.355.801-1.123.232-1.718-2.818-2.946-2.953-9.765-1.334-13.344.915-2.022 3.459-2.905 5.364-3.69.357-.147.703-.308 1.05-.468 1.742-.405 3.583-1.07 4.777-2.378 1.649-1.807.95-4.522-.123-6.408zM135.843 569.626c-.067-.182-1.267-.023-1.534.003-2.376.228-4.723.67-7.098.904a.6.6 0 0 0-.236.072c-.344 0-.694.137-.946.479-3.543 4.808-8.69 7.969-12.474 12.498-.916 1.097.666 2.68 1.59 1.573a33.453 33.453 0 0 1 1.622-1.796c.344.424.96.653 1.454.302.42-.3.829-.615 1.235-.934.318.594 1.162.951 1.803.342 4.022-3.814 8.21-7.449 12.299-11.193.14-.13 2.455-2.052 2.285-2.25zM180.878 557.995a.566.566 0 0 0-.064-.243l.017-.128c.04-.294-.134-.458-.353-.507a.468.468 0 0 0-.35-.095 10.722 10.722 0 0 0-5.109 1.93.58.58 0 0 0-.182.21c-.112.13-.174.312-.143.548.27 2.022-.317 4.126-.586 6.136-.394 2.958-.932 5.88-1.913 8.707-.355 1.02 1.275 1.454 1.626.443l.043-.13a.78.78 0 0 0 .554-.113c.544-.328 1.334-.398 2-.67.053.46.801.605 1.065.13a.572.572 0 0 0 .47-.357c.945-2.335 1.44-5.069 1.893-7.542.498-2.72 1.133-5.542 1.032-8.319z" fill="#90D0F9" fill-rule="nonzero"/><path d="M170.573 477.727c-3.704 1.51-7.286 3.328-11.02 4.816-5.149 2.053-10.29 4.118-15.254 6.582-3.883 1.929-8.733 4.055-10.666 8.156-.873 1.852-.97 3.852-.697 5.84-.009 2.144.46 4.205 1.386 6.21a1.1 1.1 0 0 0 .217.313c.023.05.04.101.064.151.09.187.209.319.342.411.457.522 1.306.586 1.787-.133 1.152-1.72 1.375-3.826 2.36-5.632.735-1.349 1.97-2.39 3.35-3.28 4.162-1.757 7.85-4.334 11.725-6.635 4.163-2.472 8.24-4.905 12.054-7.847.023-.015.046-.033.068-.048.67-.344 1.3-.753 1.91-1.19 1.384-.89 2.708-1.858 3.87-3.046.028-.03.047-.06.072-.09.843-.711 1.595-1.503 2.071-2.453 1.36-2.71-2.053-2.771-3.639-2.125zM175.771 546.222a1.112 1.112 0 0 0-.716-.967c-.027-.032-.05-.066-.081-.097-2.599-2.54-5.578-4.025-8.881-5.472-1.525-.668-2.994-1.434-4.546-2.046-1.777-.7-3.63-.972-5.26-2.02-.169-.108-1.176-.616-1.176-.616s-.43.666-.663 1.19c-.557 1.245-2.266 2.51-3.216 3.411-1.465 1.392-3.178 2.515-4.88 3.6-2.796 1.784-6.615 3.488-9.917 2.223a1.12 1.12 0 0 0-.371-.073c-.249-.069-1.029-.361-1.029-.361s-.189.738-.265 1.118c-.53 2.678-2.118 5.087-3.778 7.221-.995 1.28-1.81 2.514-1.935 3.989a1.03 1.03 0 0 0-.137.581c.262 5.635 7.027 4.586 10.916 3.757 3.615-.77 6.022-2.048 8.307-4.971 1.085-1.389 1.969-2.904 3.09-4.265.604-.734 1.268-1.49 1.739-2.334 2.875.06 5.22 1.21 7.8 2.598 1.902 1.022 4.548 2.663 6.841 2.172 3.274-.702 8.465-4.976 8.158-8.638zM184.804 575.962c-.447-.823-1.383-.888-2.233-.9-1.096-.018-2.248.131-3.342.282-.461.016-.924.015-1.307-.091-.012-.003-.022-.011-.033-.016.076-.357.151-.714.232-1.07.194-.864-.528-1.537-1.383-1.37-1.122.221-2.204.757-3.355.796a1.142 1.142 0 0 0-.458.114.816.816 0 0 0-.707.568l-.073.22c-.736.972-.868 2.078-.477 3.022.1.73.446 1.37 1.236 1.759.594.29 1.248.35 1.913.301.998.053 2.13-.18 3.135-.418 2.071-.209 4.12-.568 6.125-1.147a.774.774 0 0 0 .574-.6c.309-.415.417-.966.153-1.45zM121.737 582.927c.204-.153.409-.307.608-.467l.02-.012a.685.685 0 0 0 .15-.129c.3-.243.6-.485.89-.742a.233.233 0 0 0 .082-.221l.022-.022c.199-.21 0-.521-.273-.465-.268.054-.805.15-.805.15s-4.78 1.257-6.895 1.327c-.142-.043-.68.138-.866.213-1.61.646-4.355 3.463-2.37 4.861 1.62 1.63 4.239.867 6.235.209 1.69-.558 5.788-1.381 6.326-3.316.422-1.517-1.136-1.695-3.124-1.386z" fill="#0236EC" fill-rule="nonzero"/><path d="M170.922 543.278c-.435 4.101-3.913 7.256-7.103 9.538-.173.125-1.158.685-1.237.846.645.619 1.77.932 2.448 1.02 3.927-2.81 7.575-6.111 8.106-11.11-1.054-1.128-1.423-1.285-2.21-1.484-.099.148.019.981-.004 1.19zM145.267 556.571c-4.184 2.2-11.005 2.032-14.31-1.634-.077-.086-.507-.707-.591-.761-.73.54-.957.913-1.108 2.127 3.996 4.433 12.345 4.674 17.385 2.024 2.283-1.508 2.63-3.197 2.63-3.197-.311-.215-3.575 1.214-4.006 1.441zM180.882 559.08c-2.053-.615-4.531.688-6.12 1.862-.22.206-.274 1.196-.162 1.852.726-.535 1.928-1.111 2.75-1.482.78-.352 2.547-.814 3.418-.552a4.355 4.355 0 0 0 .114-1.68zM133.257 572.151c-2.417-.005-5.409-.1-7.817-.3-.548.386-1.058.942-1.32 1.533 2.408.2 4.903.412 7.32.417.602-.313 1.762-1.425 1.817-1.65z" fill="#FFF" fill-rule="nonzero"/><path d="M122.268 486.614c1.383-1.075 2.963-2.115 4.473-3.064 1.237-.778 2.5-1.5 3.766-2.23.897-.517 1.867-1.29 2.911-1.473M128.733 479.661c.637.068 2.285-.987 2.99-1.312 2.65-1.222 5.407-2.213 8.072-3.418a121.144 121.144 0 0 1 7.656-3.166c.456-.17 1.478-.514 1.709-.725M160.686 480.31c8.022-4.481 16.733-7.608 25.207-11.13 1.63-.678 3.211-1.514 4.87-1.94" stroke="#0236EC" stroke-width=".984" stroke-linecap="round" stroke-linejoin="round"/><path d="M177.926 477.344c2.283-2.1 4.764-4.077 7.191-6.013 1.482-1.183 3.07-2.249 4.617-3.348.445-.317 1.456-.93 1.686-1.208M174.366 500.334l11.806-5.748M182.799 493.845c5.232-2.597 10.728-4.624 16.304-6.397M54.897 544.368c6.46-4.874 13.515-7.909 21.096-10.644 10.804-3.897 22.195-5.955 33.187-9.252 3.118-.935 6.21-1.96 9.238-3.154 5.43-2.138 10.631-4.903 15.375-8.284M133.98 513.034c-.357.89.219 1.999.948 2.529 1.48 1.075 3.542.536 5.113.05a45.257 45.257 0 0 0 6.315-2.488c1.05-.506 2.026-1.2 3.1-1.659.376-.161 1.263-.372 1.298-.471M54.897 544.368c1.266.32 2.658.18 3.93-.02 2.57-.402 5.183-.862 7.668-1.642 4.089-1.284 7.966-3.09 12.032-4.431 3.321-1.095 6.874-1.368 10.217-.212 5.145 1.777 10.06 2.398 15.346.557M106.714 538.899c3.96-.202 7.67-2.486 11.182-4.106 8.975-4.14 17.953-8.392 25.803-14.414 4.006-3.072 6.471-5.057 9.678-7.623" stroke="#0236EC" stroke-width=".984" stroke-linecap="round" stroke-linejoin="round"/></g><g><path d="M68.624 623.606c-.218-1.18-.604-2.524-1.544-3.344-.97-.846-2.561-.776-3.39.235-.04.05-.075.106-.112.16-.825-.515-2.215-.145-2.216 1.117-.001 2.222.028 5.412 2.43 6.497 3.24 1.46 5.361-1.802 4.832-4.665z" fill="#0236EC" fill-rule="nonzero"/><path d="M75.514 597.886c-.99-2.502-2.14-4.954-3.202-7.428-.917-2.14-2.088-4.49-4.005-5.924-2.802-2.097-5.87-1.343-8.38.457-8.398 2.855-7.103 13.166-6.035 20.086.74 4.796 1.437 9.523 3.373 14.02 2.063 4.792 7.072 5.358 11.663 4.52 4.645-.846 9.57-3.543 10.029-8.633.514-5.694-1.374-11.872-3.443-17.098z" fill="#90D0F9" fill-rule="nonzero"/><path d="M79.224 623.034c-.447-3.037-2.716-6.695-5.716-7.762-1.296-.461-2.615.485-3.204 1.552a3.13 3.13 0 0 0-.191.422c-1.416 1.74-.68 4.299.165 6.276.973 2.273 2.554 4.552 5.16 5.1 3.36.706 4.142-3.17 3.786-5.588z" fill="#0236EC" fill-rule="nonzero"/><path d="M61.266 601.18c-.123-.96-.566-1.753-1.22-2.464-.57-.619-1.298-1.06-2.146-1.138-1.365-.124-1.858 1.3-1.705 2.365.026.178.073.35.127.52-.133 1.978 1.473 4.258 3.587 3.187.888-.45 1.483-1.482 1.357-2.47zM67.028 598.508c-.153-.572-.552-.87-1-.957-.477-.499-1.103-.792-1.834-.698-.548-.079-1.068.21-1.422.673-.168.22-.287.48-.367.759-.616 1.607.155 4.047 1.63 4.717 1.352.613 2.777.124 3.187-1.352.278-.994.067-2.167-.194-3.142zM72.011 596.014c-.14-1.393-1.207-2.622-2.634-2.781-.553-.224-1.098-.045-1.51.344-.344.249-.61.606-.787 1.038-.216.525-.102 1.138.11 1.691.169.79.586 1.533 1.185 1.996.874.675 1.879.8 2.783.09.652-.513.932-1.59.853-2.378z" fill="#FE9088" fill-rule="nonzero"/><path d="M74.213 618.81c-1.074.07-1.578 1.018-1.554 1.957-.17.819.302 1.842.798 2.468.357.45.846.885 1.425 1.017.812.184 1.447-.333 1.67-1.078.423-1.416-.46-4.488-2.34-4.365z" fill="#FFF" fill-rule="nonzero"/><path d="M56.678 582.654c.085-2.437-2.934-4.678-3.862-6.762 1.223-.367 2.444.41 3.58.736-.853-2.617-1.71-5.81-1.407-8.596.123-1.126.65-1.741 1.771-2.171-.11-.7-.798-1.925-.832-2.304M67.922 579.502c.448-2.232.765-5.334 2.255-7.145.238.571.944 1.22 1.598 1.385 1.155.29 1.284-.474 1.851-1.564 1.237-2.378 2.33-5.292 2.534-7.972.086-1.141-.047-2.679.663-3.615M22.102 577.74c4.378.057 8.73.098 13.089.756 2.004.303 3.99 1.203 6.024 1.207-1.757 1.52-4.364 2.89-5.726 4.783 1.958.512 3.757.888 5.657 1.758 1.387.637 2.813 1.636 4.272 2.066a6.769 6.769 0 0 0-.172-.279M39.624 597.672c.129.89 1.782 1.63 2.607 1.609 1.912-.048 2.56-3.632 1.89-5.039M77.104 587.568c.223 1.453 1.991 2.034 3.28 1.948 2.507-.168 3.72-2.421 2.905-4.73M64.08 606.479c-.922-.103-3.093.79-3.378 1.761-.534 1.817 3.16 1.904 4.191 1.785 1.158-.134 4.845-1.075 4.792-2.805-.045-1.476-2.476-1.42-3.45-1.39M71.763 604.068c1.262-.818 2.777-1.417 3.89-2.414.935-.837 1.805-1.897 2.562-2.897a13.474 13.474 0 0 0 2.73-7.204M42.81 599.619c.476 2.208 2.607 4.188 4.591 5.288 1.74.963 4.9 2.105 6.84 1.108" stroke="#0236EC" stroke-width=".984" stroke-linecap="round" stroke-linejoin="round"/></g><g><path d="M157.156 134.205c-.443-4.033-2.041-7.835-2.319-11.935-.188-2.78-.335-5.478-2.94-7.099-2.003-1.247-4.656-.727-6.945.277-2.59.476-5.586 1.41-6.613 4.078-1.4 3.633.01 7.381.788 10.992.647 2.998.862 7.95 3.772 9.838 2.832 1.837 6.902.566 9.896-.165 3.083-.752 4.708-2.83 4.361-5.986z" fill="#90D0F9" fill-rule="nonzero"/><path d="M149.555 122.166c-2.295.564-4.602 1.086-6.934 1.482-2.14.364-1.23 3.58.897 3.218 2.332-.395 4.639-.918 6.934-1.483 2.11-.518 1.215-3.736-.897-3.217z" fill="#FFF" fill-rule="nonzero"/><path d="M143.655 108.802c-1.003.456-1.795 1.357-2.809 1.864-.972.486-2.047.9-3.076 1.251-1.756.6-4.32.617-5.012-1.467-.763-2.297 2.333-3.068 4.01-3.321 2.593-.392 5.481.43 8.012.924 2.726.53 6.047.754 8.798.2 2.293-.464 5.405-1.8 5.117-4.651-.282-2.795-4.56-1.647-6.238-1.062-2.956 1.03-8.007 4.93-7.959 4.872" stroke="#0236EC" stroke-width=".984" stroke-linecap="round" stroke-linejoin="round"/><path d="M144.007 108.594c-.213.33.066 1.195.135 1.602.218 1.268 1.012 5.5 1.2 5.745" stroke="#0236EC" stroke-width=".984" stroke-linecap="round" stroke-linejoin="round"/></g><g><path d="M180.402 138.682c-.229-1.892.25-3.555-.36-5.135-.354-1.358-1.274-2.384-2.986-2.811-2.077-.519-5.044-.447-7.059.603a2.138 2.138 0 0 0-.559.014c-3.025.507-2.63 5.32-2.487 7.439.2 2.957.51 6.79 3.107 8.67 2.204 1.594 6.77 1.198 9.119-.787.124-.083.246-.173.363-.272.75-.633 1.064-1.537 1.138-2.47.286-1.76-.06-3.47-.276-5.25z" fill="#FE9088" fill-rule="nonzero"/><path d="M175.356 142.946c-.531-2.162-1.196-4.318-.897-6.565.19-1.42-2.061-1.4-2.249 0-.324 2.429.402 4.819.977 7.157.344 1.393 2.512.802 2.17-.592z" fill="#FFF" fill-rule="nonzero"/><path d="M172.914 132.535s.183-6.219.135-6.81c-.886.397-2.042.474-3.001.543-1.422.103-2.905.208-4.304-.137-1.992-.49-3.345-2.102-2.73-4.165.51-1.711 2.518-2.637 4.24-2.634 2.306.003 4.492 1.718 6.173 3.108.894.74 1.707 1.564 2.58 2.324.76.662 1.787.999 2.728 1.33 2.289.804 5.422.396 6.743-1.89.481-.834.59-1.734-.187-2.412-.988-.86-2.179-.694-3.367-.44-1.298.277-2.457.88-3.66 1.418-.46.206-1.16.613-1.601.681" stroke="#0236EC" stroke-width=".984" stroke-linecap="round" stroke-linejoin="round"/></g><g><path d="M221.51 152.88c.005-.989-.521-1.877-1.395-2.48-.594-.41-1.383-.58-2.152-.569a6.905 6.905 0 0 0-3.082.13c-.502.09-.993.202-1.482.435-.674.32-1.097.911-1.33 1.58-.604 1.16-.433 2.801-.493 4.035-.058 1.197-.06 2.524.365 3.678.134.51.373.897.686 1.192.154.162.325.282.506.366.97.537 2.326.549 3.553.492 1.042-.05 2.08-.06 3.002-.608.631-.375 1.001-.955 1.209-1.603.737-1.237.717-3.041.817-4.421.055-.758.004-1.52-.204-2.227z" fill="#0236EC" fill-rule="nonzero"/><path d="M219.155 155.293c-.642.002-1.283.018-1.925.032-.02-.69-.04-1.38-.043-2.071-.003-1.077-1.69-1.077-1.686 0 .002.7.023 1.4.043 2.1-.64.013-1.278.03-1.917.032-1.087.004-1.088 1.672 0 1.668.66-.002 1.32-.019 1.98-.033.025.567.048 1.135.081 1.702.062 1.07 1.749 1.076 1.687 0-.034-.576-.057-1.154-.083-1.73.62-.013 1.242-.03 1.863-.032 1.087-.003 1.088-1.672 0-1.668z" fill="#FFF" fill-rule="nonzero"/><path d="M218.546 141.898c1.494-1.191 3.557-2.807 5.565-3.006 1.571-.155 2.628.515 2.633 2.126.005 1.652-1.372 2.902-2.833 3.397-1.935.657-4.026.028-5.844-.706-2.562-1.033-6.196-3.292-8.908-1.42-1.038.715-2.013 2.051-1.994 3.338.019 1.29 1.283 2.302 2.544 2.425 1.81.178 3.59-.973 4.988-1.972.293-.21 1.281-1.235 1.506-1.124M216.955 145.142s-.237 3.755-.19 5.702" stroke="#0236EC" stroke-width=".984" stroke-linecap="round" stroke-linejoin="round"/></g></g></g></svg>
