<?xml version="1.0" standalone="no"?>
<svg xmlns:xlink="http://www.w3.org/1999/xlink" id="wave" style="transform:rotate(0deg); transition: 0.3s" viewBox="0 0 1440 170" version="1.1" xmlns="http://www.w3.org/2000/svg"><defs><linearGradient id="sw-gradient-0" x1="0" x2="0" y1="1" y2="0"><stop stop-color="rgba(241, 245, 248, 1)" offset="0%"/><stop stop-color="rgba(241, 245, 248, 0.48)" offset="100%"/></linearGradient></defs><path style="transform:translate(0, 0px); opacity:1" fill="url(#sw-gradient-0)" d="M0,17L10,17C20,17,40,17,60,34C80,51,100,85,120,85C140,85,160,51,180,36.8C200,23,220,28,240,39.7C260,51,280,68,300,79.3C320,91,340,96,360,107.7C380,119,400,136,420,138.8C440,142,460,130,480,113.3C500,96,520,74,540,76.5C560,79,580,108,600,121.8C620,136,640,136,660,133.2C680,130,700,125,720,113.3C740,102,760,85,780,76.5C800,68,820,68,840,65.2C860,62,880,57,900,62.3C920,68,940,85,960,93.5C980,102,1000,102,1020,107.7C1040,113,1060,125,1080,113.3C1100,102,1120,68,1140,51C1160,34,1180,34,1200,39.7C1220,45,1240,57,1260,70.8C1280,85,1300,102,1320,116.2C1340,130,1360,142,1380,141.7C1400,142,1420,130,1430,124.7L1440,119L1440,170L1430,170C1420,170,1400,170,1380,170C1360,170,1340,170,1320,170C1300,170,1280,170,1260,170C1240,170,1220,170,1200,170C1180,170,1160,170,1140,170C1120,170,1100,170,1080,170C1060,170,1040,170,1020,170C1000,170,980,170,960,170C940,170,920,170,900,170C880,170,860,170,840,170C820,170,800,170,780,170C760,170,740,170,720,170C700,170,680,170,660,170C640,170,620,170,600,170C580,170,560,170,540,170C520,170,500,170,480,170C460,170,440,170,420,170C400,170,380,170,360,170C340,170,320,170,300,170C280,170,260,170,240,170C220,170,200,170,180,170C160,170,140,170,120,170C100,170,80,170,60,170C40,170,20,170,10,170L0,170Z"/><defs><linearGradient id="sw-gradient-1" x1="0" x2="0" y1="1" y2="0"><stop stop-color="rgba(241, 245, 248, 1)" offset="0%"/><stop stop-color="rgba(241, 245, 248, 0.52)" offset="100%"/></linearGradient></defs><path style="transform:translate(0, 50px); opacity:0.9" fill="url(#sw-gradient-1)" d="M0,119L10,107.7C20,96,40,74,60,70.8C80,68,100,85,120,102C140,119,160,136,180,121.8C200,108,220,62,240,62.3C260,62,280,108,300,110.5C320,113,340,74,360,56.7C380,40,400,45,420,65.2C440,85,460,119,480,136C500,153,520,153,540,138.8C560,125,580,96,600,73.7C620,51,640,34,660,36.8C680,40,700,62,720,62.3C740,62,760,40,780,45.3C800,51,820,85,840,107.7C860,130,880,142,900,127.5C920,113,940,74,960,70.8C980,68,1000,102,1020,119C1040,136,1060,136,1080,136C1100,136,1120,136,1140,113.3C1160,91,1180,45,1200,48.2C1220,51,1240,102,1260,102C1280,102,1300,51,1320,31.2C1340,11,1360,23,1380,48.2C1400,74,1420,113,1430,133.2L1440,153L1440,170L1430,170C1420,170,1400,170,1380,170C1360,170,1340,170,1320,170C1300,170,1280,170,1260,170C1240,170,1220,170,1200,170C1180,170,1160,170,1140,170C1120,170,1100,170,1080,170C1060,170,1040,170,1020,170C1000,170,980,170,960,170C940,170,920,170,900,170C880,170,860,170,840,170C820,170,800,170,780,170C760,170,740,170,720,170C700,170,680,170,660,170C640,170,620,170,600,170C580,170,560,170,540,170C520,170,500,170,480,170C460,170,440,170,420,170C400,170,380,170,360,170C340,170,320,170,300,170C280,170,260,170,240,170C220,170,200,170,180,170C160,170,140,170,120,170C100,170,80,170,60,170C40,170,20,170,10,170L0,170Z"/><defs><linearGradient id="sw-gradient-2" x1="0" x2="0" y1="1" y2="0"><stop stop-color="rgba(241, 245, 248, 1)" offset="0%"/><stop stop-color="rgba(241, 245, 248, 0.57)" offset="100%"/></linearGradient></defs><path style="transform:translate(0, 100px); opacity:0.8" fill="url(#sw-gradient-2)" d="M0,0L10,22.7C20,45,40,91,60,116.2C80,142,100,147,120,138.8C140,130,160,108,180,87.8C200,68,220,51,240,56.7C260,62,280,91,300,93.5C320,96,340,74,360,65.2C380,57,400,62,420,68C440,74,460,79,480,79.3C500,79,520,74,540,62.3C560,51,580,34,600,22.7C620,11,640,6,660,5.7C680,6,700,11,720,17C740,23,760,28,780,39.7C800,51,820,68,840,68C860,68,880,51,900,59.5C920,68,940,102,960,110.5C980,119,1000,102,1020,85C1040,68,1060,51,1080,36.8C1100,23,1120,11,1140,31.2C1160,51,1180,102,1200,116.2C1220,130,1240,108,1260,90.7C1280,74,1300,62,1320,53.8C1340,45,1360,40,1380,42.5C1400,45,1420,57,1430,62.3L1440,68L1440,170L1430,170C1420,170,1400,170,1380,170C1360,170,1340,170,1320,170C1300,170,1280,170,1260,170C1240,170,1220,170,1200,170C1180,170,1160,170,1140,170C1120,170,1100,170,1080,170C1060,170,1040,170,1020,170C1000,170,980,170,960,170C940,170,920,170,900,170C880,170,860,170,840,170C820,170,800,170,780,170C760,170,740,170,720,170C700,170,680,170,660,170C640,170,620,170,600,170C580,170,560,170,540,170C520,170,500,170,480,170C460,170,440,170,420,170C400,170,380,170,360,170C340,170,320,170,300,170C280,170,260,170,240,170C220,170,200,170,180,170C160,170,140,170,120,170C100,170,80,170,60,170C40,170,20,170,10,170L0,170Z"/></svg>